<svg version="1.1" xmlns="http://www.w3.org/2000/svg" xmlns:xlink="http://www.w3.org/1999/xlink" width="72.92785" height="49.25606" viewBox="0,0,72.92785,49.25606"><g transform="translate(-229.11551,-156.88929)"><g data-paper-data="{&quot;isPaintingLayer&quot;:true}" fill-rule="nonzero" stroke="none" stroke-linecap="butt" stroke-linejoin="miter" stroke-miterlimit="10" stroke-dasharray="" stroke-dashoffset="0" style="mix-blend-mode: normal"><path d="M293.13332,168.56289c0.72385,0.5315 1.32686,1.24966 1.80901,2.15447c0.38533,0.72701 0.39103,1.56982 1.21486,2.20382c1.58691,1.21866 2.9087,2.67459 3.96537,4.3678c0.15186,0.24424 0.33978,0.62831 0.56377,1.15222c0.22778,0.5315 0.55048,1.03263 0.70803,1.56034c0.55238,1.83937 0.83901,3.37693 0.50872,5.26564c-0.09618,0.54542 -0.37901,1.38317 -0.8485,2.51324c-0.58275,1.39899 -1.60589,2.50944 -2.65181,3.56295c-0.87507,0.87887 -2.0216,1.48441 -3.0789,2.21332c-0.31005,0.21386 -0.57516,0.47835 -0.79535,0.79345c-0.80864,1.1617 -1.63057,2.53791 -2.48476,3.48513c-1.70207,1.88809 -3.76669,3.14218 -6.19387,3.76226c-2.62713,0.67197 -5.45168,0.40242 -8.03135,-0.45937c-0.50493,-0.16704 -0.79725,-0.09871 -1.2756,0.17464c-2.53096,1.4515 -5.24223,2.02413 -8.13385,1.71788c-0.80294,-0.08352 -1.73307,-0.34358 -2.58157,-0.5277c-1.18069,-0.25626 -1.86405,-0.00759 -3.06562,0.23538c-1.04528,0.2088 -1.94377,0.17021 -2.69547,-0.11579c-1.23004,-0.46886 -1.78432,-0.51821 -3.13965,-0.19362c-2.17535,0.51821 -4.22923,0.05885 -6.37421,-0.48215c-2.18484,-0.55238 -3.84957,-1.42556 -5.48014,-2.84163c-0.4195,-0.36445 -1.20157,-0.90165 -1.53755,-1.52047c-0.39989,-0.7403 -0.77573,-1.69574 -1.12753,-2.86631c-0.04366,-0.14236 -0.2145,-0.37775 -0.33788,-0.46506c-0.86559,-0.60743 -1.82609,-1.16361 -2.5474,-1.87923c-0.99466,-0.98327 -1.99123,-2.1241 -2.60815,-3.39021c-0.17843,-0.36445 -0.41887,-1.18512 -0.72132,-2.46198c-0.24297,-1.02504 -0.20501,-2.03298 -0.23348,-3.0846c-0.08731,-3.20419 2.17156,-6.52227 4.67531,-8.32747c0.2183,-0.15755 0.43849,-0.62831 0.5334,-0.94911c0.53529,-1.83558 1.46542,-3.35415 3.00867,-4.56142c0.76182,-0.59604 1.4205,-1.01934 1.97604,-1.2699c0.77257,-0.34737 1.10096,-0.51252 1.58121,-1.26421c3.02955,-4.74174 8.14334,-7.90417 13.57604,-9.19875c4.35071,-1.03642 8.61916,-1.24839 12.80535,-0.63591c0.60996,0.08985 2.00452,0.38913 4.18367,0.89786c0.69855,0.16324 1.40658,0.50872 2.17346,0.80675c2.43858,0.9491 4.66518,2.39744 6.67982,4.34501c0.40242,0.38723 1.14716,1.38 2.2342,2.9783c0.18223,0.26828 0.39926,0.46759 0.65108,0.59794c0.3556,0.18603 0.72702,0.34358 1.11426,0.47266c0.36698,0.12275 1.02757,0.53403 1.98174,1.23384z" fill="#fedf55" stroke-width="0.5"/><path d="M280.29,160.97383l-1.33444,-0.28093c-0.08099,-0.01645 -0.12402,0.01645 -0.12908,0.0987c-0.03543,0.61249 0.20438,1.02884 0.71943,1.24903c0.26322,0.1139 0.46127,0.20943 0.59414,0.28663c0.19488,0.11389 0.39926,0.20437 0.61312,0.27144c0.39483,0.12401 0.66754,0.23221 0.81813,0.32459c0.37079,0.23032 0.59857,0.42457 0.68336,0.58275c0.22272,0.41761 0.51062,0.78776 0.86369,1.11046c0.02594,0.02344 0.04444,0.0545 0.05315,0.08921l0.11958,0.44608c0.02152,0.08352 0.07087,0.14363 0.14806,0.18033c0.24424,0.12149 0.40495,0.31321 0.48215,0.57516c0.02025,0.0658 0.05631,0.12148 0.1082,0.16704c0.17464,0.14806 0.29928,0.33472 0.37394,0.55998c0.01898,0.05821 0.04682,0.11073 0.08352,0.15755c0.51885,0.65932 0.79852,1.40152 0.83902,2.22661c0.01518,0.29486 0.05315,0.56947 0.11389,0.82383c0.15186,0.6359 0.04935,1.42556 0.91684,1.5869c0.78206,0.14553 1.54388,0.36193 2.28545,0.64919c0.49543,0.19362 0.83332,0.50682 1.26991,0.80484c0.33029,0.22652 0.60489,0.47898 0.82382,0.75738c0.33409,0.4271 0.59414,0.74221 0.85799,1.2775c0.23032,0.46949 0.54669,0.86875 0.94911,1.19778c0.34294,0.27967 0.58718,0.51315 0.73271,0.70045c0.59857,0.7732 1.00606,1.32748 1.22245,1.66283c0.29106,0.45177 0.45684,0.77636 0.49734,0.97378c0.16451,0.78966 0.2512,1.58691 0.26005,2.39176c0.00633,0.5391 -0.08352,1.08451 -0.26955,1.63626c-0.24424,0.72764 -0.52707,1.43948 -0.8485,2.13549c-0.65868,1.42176 -1.96655,2.53601 -3.20608,3.43956c-0.36256,0.26575 -0.83522,1.07249 -1.03074,1.62488c-0.26575,0.75169 -0.60553,1.46479 -1.01934,2.13929c-0.52897,0.86432 -0.96556,1.51793 -1.30976,1.96085c-0.55554,0.71246 -1.23954,1.30344 -2.05198,1.77294c-1.3376,0.7732 -2.77013,1.31167 -4.29755,1.61538c-0.82763,0.16325 -1.06869,0.60743 -0.75739,1.39899c-0.85293,-0.02278 -1.52301,-0.18856 -2.01021,-0.49734c-0.50872,-0.32269 -1.07819,-0.41697 -1.70839,-0.28283c-0.31131,0.0658 -0.54985,0.20943 -0.71562,0.43089c-0.03796,0.05061 -0.08542,0.08985 -0.14236,0.11769c-0.93772,0.46506 -1.84886,0.99846 -2.85492,1.20157c-1.2756,0.25942 -2.56258,0.35813 -3.86096,0.29612c-1.07059,-0.05315 -2.23989,-0.33598 -3.35225,-0.55807c-1.25472,-0.24866 -2.49426,0.25816 -3.73949,0.3189c-1.29269,0.06454 -2.4392,-0.61312 -3.7243,-0.54289c-0.76878,0.04176 -1.55844,0.28474 -2.27407,0.3151c-1.8805,0.07973 -3.76416,-0.15439 -5.65098,-0.70234c-0.7403,-0.2145 -1.34015,-0.55428 -2.0216,-0.92633c-0.24677,-0.13414 -0.48595,-0.30751 -0.71753,-0.52011c-0.50113,-0.46063 -1.02377,-0.89785 -1.56792,-1.31167c-0.18603,-0.14047 -0.3322,-0.36699 -0.43849,-0.67956c-0.14616,-0.4271 -0.14426,-1.04971 -0.205,-1.55463c-0.03037,-0.24297 -0.12276,-0.47772 -0.27714,-0.70424c-0.19742,-0.28473 -0.34927,-0.59984 -0.6321,-0.80675c-0.4271,-0.317 -0.77067,-0.66248 -1.24523,-0.90165c-0.44418,-0.22399 -0.88837,-0.44988 -1.33255,-0.67766c-0.34168,-0.1759 -0.60489,-0.38533 -0.78966,-0.62831c-0.14047,-0.18476 -0.26575,-0.37838 -0.37584,-0.58085c-0.1354,-0.24677 -0.255,-0.44229 -0.35877,-0.58656c-0.39229,-0.54415 -0.75612,-1.10665 -1.09147,-1.68751c-0.00253,-0.00379 -0.08668,-0.10566 -0.25247,-0.30561c-0.06074,-0.0734 -0.09807,-0.16198 -0.112,-0.26575c-0.00759,-0.06201 -0.031,-0.11705 -0.07023,-0.16514c-0.13414,-0.16199 -0.22525,-0.33978 -0.27334,-0.5334c-0.06581,-0.26322 -0.11136,-0.43026 -0.13667,-0.50113c-0.12022,-0.33029 -0.18413,-0.67703 -0.19172,-1.04022c-0.02025,-1.01111 -0.04935,-2.0235 -0.08732,-3.03715c-0.00253,-0.06201 0.01139,-0.12085 0.04176,-0.17653c0.13161,-0.23664 0.21134,-0.48404 0.23918,-0.7422c0.03417,-0.3151 0.08668,-0.54669 0.15755,-0.69475c0.6454,-1.34014 1.53945,-2.49236 2.68218,-3.45665c0.07593,-0.06454 0.1835,-0.08922 0.3227,-0.07403c0.0587,0.00614 0.11747,-0.0094 0.16515,-0.04366c0.37458,-0.26955 0.72006,-0.5701 1.03643,-0.90165c0.20754,-0.21893 0.32649,-0.48088 0.35686,-0.78586c0.10503,-1.02883 0.32397,-1.80394 0.65679,-2.32531c0.15819,-0.24677 0.50239,-0.63464 1.03262,-1.16361c0.37711,-0.37584 0.78333,-0.69284 1.21866,-0.951c0.48341,-0.28473 0.97821,-0.54985 1.4844,-0.79535c0.45557,-0.22146 0.79282,-0.44419 1.01175,-0.66817c0.51631,-0.5277 0.7403,-1.17309 1.25282,-1.7046c0.21133,-0.22019 0.40558,-0.45367 0.58275,-0.70045c0.20754,-0.28979 0.40053,-0.52011 0.57896,-0.69095c0.30372,-0.28853 0.60617,-0.57833 0.90735,-0.86938c0.19615,-0.18855 0.55175,-0.47266 1.0668,-0.8523c0.50492,-0.37394 0.89785,-0.87127 1.39139,-1.19777c0.65931,-0.43532 1.32242,-0.86369 1.98933,-1.28509c0.12022,-0.07593 0.36003,-0.17843 0.71943,-0.30751c0.35496,-0.12718 0.62072,-0.40242 0.93392,-0.51631c0.97695,-0.35686 1.96023,-0.69728 2.94983,-1.02124c2.13485,-0.69854 4.18683,-1.08578 6.15591,-1.16171c1.02124,-0.03796 2.60182,-0.01075 4.74174,0.08163c3.10548,0.13667 5.57506,0.52011 8.35974,1.72738zM258.20806,178.98219c0,-0.92884 -0.75298,-1.68182 -1.68182,-1.68182c-0.92884,0 -1.68182,0.75298 -1.68182,1.68182c0,0.92884 0.75297,1.68182 1.68182,1.68182c0.92884,0 1.68182,-0.75297 1.68182,-1.68182zM278.94193,179.93121c0.2509,-0.26439 0.3865,-0.61762 0.37695,-0.98199c-0.00954,-0.36436 -0.16343,-0.71001 -0.42782,-0.96091l-0.30844,-0.29269c-0.26439,-0.2509 -0.61762,-0.38649 -0.98199,-0.37695c-0.36437,0.00954 -0.71001,0.16342 -0.96091,0.42782l-0.29006,0.30567c-0.2509,0.26439 -0.3865,0.61763 -0.37695,0.98199c0.00954,0.36436 0.16343,0.71001 0.42782,0.96091l0.30844,0.29269c0.26439,0.2509 0.61762,0.38649 0.98199,0.37695c0.36437,-0.00954 0.71001,-0.16343 0.96092,-0.42782zM265.8294,180.28247c-0.5391,0.20691 -0.25436,1.2737 -0.04366,1.61158c0.66438,1.063 2.36707,1.21296 3.15293,0.20121c0.27524,-0.35686 0.90545,-1.70649 0.06454,-1.82987c-0.1895,-0.02671 -0.37227,0.08122 -0.44039,0.26005c-0.13667,0.35877 -0.15945,0.81813 -0.46316,1.0687c-0.39736,0.32903 -0.82636,0.36446 -1.28699,0.1063c-0.41761,-0.23348 -0.49164,-0.70424 -0.53151,-1.13893c-0.01029,-0.10361 -0.0683,-0.19651 -0.15689,-0.25123c-0.08859,-0.05472 -0.19763,-0.065 -0.29489,-0.02781zM284.57237,180.4666c-1.0611,-0.22209 -2.16586,-0.3284 -2.89477,0.59604c-0.18982,0.24171 -0.2841,0.51821 -0.28284,0.82952c0.0057,1.94757 0.84661,1.99123 2.48856,2.05577c0.74599,0.02847 2.11272,-0.24487 2.07665,-1.25851c-0.02278,-0.65552 -0.20121,-1.2155 -0.5353,-1.67993c-0.20754,-0.286 -0.49164,-0.46696 -0.8523,-0.54288zM253.73017,183.42592c0.18413,-0.25816 0.12909,-0.57896 0.15756,-0.79345c0.07782,-0.57137 0.0057,-1.61538 -0.56377,-1.94567c-0.56947,-0.33029 -1.51288,-0.31891 -2.18105,-0.23538c-0.59731,0.07466 -1.02567,0.22146 -1.28509,0.44038c-0.37964,0.32017 -0.53593,0.80232 -0.46886,1.44645c0.06581,0.62768 0.29612,1.08198 0.69095,1.36292c0.21767,0.15438 0.57643,0.24487 1.07629,0.27144c0.76308,0.04176 1.42366,0.15565 2.18674,-0.22209c0.02784,-0.01519 0.08795,-0.03227 0.18033,-0.05125c0.07846,-0.01772 0.12908,-0.07024 0.15186,-0.15756c0.01139,-0.04176 0.02973,-0.08035 0.05504,-0.11579z" fill="#fefc98" stroke-width="1"/><path d="M278.65782,180.24426c-0.2509,0.2644 -0.60225,0.42039 -0.96662,0.42993c-0.36437,0.00954 -0.72341,-0.12785 -0.9878,-0.37875l-0.31027,-0.29442c-0.26439,-0.2509 -0.42038,-0.60226 -0.42992,-0.96663c-0.00954,-0.36436 0.12785,-0.7234 0.37876,-0.98779l0.29179,-0.30749c0.2509,-0.2644 0.60226,-0.42039 0.96662,-0.42992c0.36437,-0.00954 0.72341,0.12784 0.9878,0.37874l0.31027,0.29443c0.26439,0.2509 0.42038,0.60226 0.42992,0.96663c0.00954,0.36437 -0.12786,0.7234 -0.37876,0.9878z" data-paper-data="{&quot;noHover&quot;:false,&quot;origItem&quot;:[&quot;Path&quot;,{&quot;applyMatrix&quot;:true,&quot;segments&quot;:[[[260.45861,179.85844],[0,0],[0.5163,-0.54406]],[[261.2343,177.8377],[0.01963,0.74979],[-0.01963,-0.74979]],[[260.35392,175.86032],[0.54407,0.5163],[0,0]],[[259.71921,175.25803],[0,0],[-0.54406,-0.5163]],[[257.69847,174.48234],[0.74979,-0.01963],[-0.74979,0.01963]],[[255.72109,175.36272],[0.5163,-0.54407],[0,0]],[[255.12419,175.99173],[0,0],[-0.5163,0.54406]],[[254.3485,178.01247],[-0.01963,-0.74979],[0.01963,0.74979]],[[255.22888,179.98984],[-0.54407,-0.5163],[0,0]],[[255.86359,180.59213],[0,0],[0.54406,0.5163]],[[257.88433,181.36783],[-0.74979,0.01963],[0.74979,-0.01963]],[[259.86171,180.48745],[-0.5163,0.54407],[0,0]]],&quot;closed&quot;:true,&quot;fillColor&quot;:[0,0,0,1]}]}" fill="#7f6b6a" stroke-width="0.5"/><path d="M280.29,160.97383l1.32875,0.59035c1.28573,0.7732 2.26204,1.47175 2.92894,2.09563c0.12655,0.11769 0.35623,0.3613 0.68905,0.73082c0.12781,0.14174 0.32397,0.41191 0.58845,0.81054c0.14553,0.22019 0.31068,0.42394 0.49543,0.61122c0.23285,0.23412 0.39989,0.4328 0.50113,0.59605c0.23158,0.37584 0.4948,0.83331 0.78965,1.37241c0.15438,0.286 0.38913,0.51885 0.70424,0.69854c0.00759,0.00379 0.01139,0.01012 0.01139,0.01898c0,0.01645 0,0.0329 0,0.04935c0,0.04049 0.01898,0.06897 0.05694,0.08542c0.3594,0.15439 0.70488,0.33282 1.03643,0.5353c0.3265,0.19931 0.69854,0.20501 1.03832,0.39293c0.29485,0.16198 0.53846,0.2784 0.73081,0.34927c0.56567,0.2088 1.02757,0.5644 1.3857,1.0668c0.03037,0.04303 0.06833,0.07783 0.11389,0.1044c0.15059,0.08606 0.24108,0.21766 0.27145,0.39482c0.00975,0.05255 0.03881,0.09986 0.08162,0.13288c0.26196,0.20311 0.38724,0.99276 0.52391,1.60969c0.01518,0.06707 0.05189,0.11959 0.1101,0.15755c0.50366,0.32523 0.9219,0.73208 1.25473,1.22055c0.00813,0.01193 0.06165,0.0546 0.13098,0.1044c0.10883,0.07972 0.26891,0.23158 0.48025,0.45558c0.83648,0.8871 1.67233,1.82545 2.50754,2.81505c0.61755,1.12754 1.13893,2.3367 1.56413,3.62749c0.0987,0.30119 0.15565,0.64793 0.17083,1.04023c0.03987,0.99276 0.24108,1.92099 -0.08352,2.90426c-0.22146,0.6707 -0.47012,1.33128 -0.74599,1.98174c-0.18476,0.43912 -0.43216,0.82509 -0.74221,1.15791c-1.26042,1.35912 -2.72457,2.46135 -4.39247,3.30669c-0.19362,0.0987 -0.39673,0.32649 -0.52011,0.54479c-1.13133,1.98047 -2.2671,3.52752 -3.4073,4.64114c-0.49227,0.47961 -1.2003,0.98074 -2.1241,1.50338c-2.13739,1.20917 -4.92208,1.29459 -7.30433,0.88837c-0.31131,-0.79155 -0.07024,-1.23574 0.75739,-1.39899c1.52743,-0.30371 2.95995,-0.84217 4.29755,-1.61538c0.81243,-0.46949 1.49643,-1.06047 2.05198,-1.77293c0.34421,-0.44292 0.7808,-1.09654 1.30976,-1.96086c0.41381,-0.6745 0.75359,-1.3876 1.01934,-2.13929c0.19552,-0.55238 0.66818,-1.35912 1.03073,-1.62488c1.23953,-0.90355 2.5474,-2.0178 3.20608,-3.43957c0.32143,-0.69601 0.60426,-1.40784 0.8485,-2.13549c0.18602,-0.55174 0.27587,-1.09716 0.26955,-1.63626c-0.00886,-0.80484 -0.09554,-1.60209 -0.26005,-2.39175c-0.0405,-0.19742 -0.20628,-0.52201 -0.49734,-0.97378c-0.21639,-0.33535 -0.62388,-0.88963 -1.22245,-1.66284c-0.14553,-0.18729 -0.38977,-0.42077 -0.73271,-0.70045c-0.40242,-0.32903 -0.71879,-0.72828 -0.94911,-1.19778c-0.26385,-0.53529 -0.52391,-0.8504 -0.858,-1.2775c-0.21893,-0.2784 -0.49353,-0.53087 -0.82382,-0.75738c-0.43659,-0.29802 -0.77447,-0.61122 -1.2699,-0.80484c-0.74157,-0.28726 -1.50338,-0.50366 -2.28545,-0.64919c-0.86748,-0.16135 -0.76498,-0.95101 -0.91684,-1.58691c-0.06074,-0.25437 -0.0987,-0.52898 -0.11389,-0.82383c-0.0405,-0.82509 -0.32017,-1.56729 -0.83902,-2.22661c-0.0367,-0.04682 -0.06454,-0.09934 -0.08352,-0.15755c-0.07466,-0.22526 -0.19932,-0.41191 -0.37394,-0.55998c-0.05189,-0.04556 -0.08795,-0.10123 -0.1082,-0.16704c-0.0772,-0.26196 -0.23791,-0.45367 -0.48215,-0.57516c-0.0772,-0.0367 -0.12654,-0.09681 -0.14806,-0.18033l-0.11958,-0.44608c-0.00871,-0.03472 -0.02721,-0.06578 -0.05315,-0.08922c-0.35307,-0.32269 -0.64096,-0.69285 -0.86369,-1.11046c-0.08479,-0.15819 -0.31257,-0.35243 -0.68336,-0.58275c-0.15059,-0.09238 -0.4233,-0.20057 -0.81813,-0.32459c-0.21386,-0.06707 -0.41824,-0.15755 -0.61312,-0.27144c-0.13288,-0.07719 -0.33093,-0.17273 -0.59414,-0.28663c-0.51505,-0.22019 -0.75486,-0.63654 -0.71943,-1.24903c0.00507,-0.08225 0.04809,-0.11515 0.12908,-0.0987z" fill="#fffcde" stroke-width="1"/><path d="M281.61875,161.56417c0.49986,0.15565 0.98961,0.39862 1.46922,0.72892c0.64666,0.44292 1.19777,0.85673 1.65335,1.24143c0.04303,0.0367 0.07023,0.08289 0.08162,0.13857c0.01645,0.08731 0.0696,0.13414 0.15945,0.14047c0.06327,0.00507 0.11832,0.02847 0.16514,0.07023c0.18856,0.16324 0.5315,0.42203 1.02883,0.77636c0.33409,0.23791 0.61059,0.59161 0.82952,1.0611c0.07972,0.16831 0.19425,0.34358 0.34358,0.5258c0.13667,0.16704 0.24804,0.34991 0.33409,0.54859c0.06454,0.14933 0.15375,0.31447 0.26764,0.49544c0.14616,0.23348 0.17464,0.49164 0.33219,0.68526c0.32903,0.40748 0.71689,0.68715 1.1636,0.83901c0.77321,0.26196 1.40025,0.49038 1.88113,0.68526c0.30498,0.12275 0.57453,0.31068 0.80865,0.56377c0.81434,0.88077 1.2737,1.45403 1.56222,2.57967c0.01518,0.06328 0.04999,0.11263 0.10441,0.14806c0.11136,0.07213 0.19678,0.16641 0.25625,0.28284c0.24424,0.47455 0.55681,0.89089 0.93772,1.24902c0.46823,0.43912 0.70614,0.66248 0.71373,0.67007c0.81243,0.85167 1.62551,1.72612 2.43921,2.62334c0.02096,0.02606 0.02031,0.06388 -0.00151,0.08902c-0.02182,0.02514 -0.05827,0.03006 -0.08581,0.01158c-0.12908,-0.09238 -0.25436,-0.22019 -0.37585,-0.38344c-0.02278,-0.03291 -0.04682,-0.05379 -0.07213,-0.06264c-0.02784,-0.01012 -0.03354,-0.00316 -0.01709,0.02088l0.45177,0.67956c-0.83522,-0.98961 -1.67106,-1.92795 -2.50754,-2.81505c-0.21134,-0.22399 -0.37142,-0.37585 -0.48025,-0.45557c-0.06932,-0.04981 -0.12285,-0.09247 -0.13098,-0.1044c-0.33282,-0.48848 -0.75106,-0.89533 -1.25472,-1.22055c-0.05821,-0.03797 -0.09492,-0.09048 -0.1101,-0.15755c-0.13667,-0.61692 -0.26195,-1.40658 -0.5239,-1.60969c-0.04282,-0.03301 -0.07188,-0.08033 -0.08163,-0.13287c-0.03037,-0.17717 -0.12085,-0.30877 -0.27144,-0.39482c-0.04556,-0.02658 -0.08352,-0.06138 -0.11389,-0.10441c-0.35813,-0.50239 -0.82003,-0.85799 -1.3857,-1.0668c-0.19236,-0.07086 -0.43596,-0.18729 -0.73081,-0.34927c-0.33978,-0.18792 -0.71182,-0.19362 -1.03832,-0.39293c-0.33155,-0.20247 -0.67703,-0.38091 -1.03643,-0.53529c-0.03796,-0.01645 -0.05694,-0.04493 -0.05694,-0.08543c0,-0.01645 0,-0.0329 0,-0.04935c0,-0.00886 -0.0038,-0.01519 -0.01139,-0.01899c-0.3151,-0.1797 -0.54985,-0.41254 -0.70423,-0.69854c-0.29485,-0.53909 -0.55808,-0.99656 -0.78966,-1.37241c-0.10124,-0.16324 -0.26828,-0.36192 -0.50113,-0.59605c-0.18476,-0.18729 -0.3499,-0.39103 -0.49543,-0.61122c-0.26448,-0.39862 -0.46064,-0.6688 -0.58845,-0.81053c-0.33282,-0.36952 -0.5625,-0.61312 -0.68905,-0.73082c-0.66691,-0.62388 -1.64322,-1.32242 -2.92894,-2.09563z" fill="#fefc98" stroke-width="1"/><path d="M254.84443,178.98219c0,-0.92884 0.75297,-1.68182 1.68182,-1.68182c0.92884,0 1.68182,0.75298 1.68182,1.68182c0,0.92884 -0.75298,1.68182 -1.68182,1.68182c-0.92884,0 -1.68182,-0.75297 -1.68182,-1.68182z" fill="#7f6b6a" stroke-width="1"/><path d="M265.78574,181.89405c-0.2107,-0.33788 -0.49544,-1.40468 0.04366,-1.61158c0.09726,-0.03719 0.20629,-0.02691 0.29489,0.02781c0.08859,0.05472 0.1466,0.14762 0.15689,0.25123c0.03986,0.43469 0.1139,0.90545 0.53151,1.13893c0.46063,0.25816 0.88963,0.22272 1.28699,-0.1063c0.30372,-0.25057 0.32649,-0.70994 0.46316,-1.0687c0.06812,-0.17883 0.25089,-0.28677 0.44039,-0.26005c0.84091,0.12339 0.2107,1.47301 -0.06454,1.82988c-0.78586,1.01175 -2.48856,0.86179 -3.15293,-0.20121z" fill="#6d6555" stroke-width="1"/><path d="M285.42467,181.00949c0.33409,0.46443 0.51252,1.02441 0.5353,1.67992c0.03607,1.01364 -1.33065,1.28698 -2.07665,1.25851c-1.64195,-0.06454 -2.48287,-0.1082 -2.48856,-2.05577c-0.00126,-0.31131 0.09301,-0.58781 0.28284,-0.82951c0.72891,-0.92443 1.83367,-0.81813 2.89477,-0.59604c0.36066,0.07593 0.64476,0.25689 0.8523,0.54289z" fill="#f9bea6" stroke-width="1"/><path d="M253.67513,183.5417c-0.02277,0.08731 -0.0734,0.13984 -0.15185,0.15756c-0.09238,0.01898 -0.1525,0.03606 -0.18034,0.05125c-0.76308,0.37775 -1.42365,0.26386 -2.18674,0.22209c-0.49986,-0.02658 -0.85862,-0.11705 -1.07629,-0.27144c-0.39483,-0.28093 -0.62515,-0.73524 -0.69095,-1.36292c-0.06707,-0.64412 0.08922,-1.12627 0.46886,-1.44644c0.25942,-0.21892 0.68778,-0.36573 1.28509,-0.44039c0.66817,-0.08352 1.61158,-0.09491 2.18105,0.23538c0.56947,0.33029 0.64159,1.3743 0.56377,1.94567c-0.02847,0.2145 0.02658,0.53529 -0.15755,0.79345c-0.02531,0.03543 -0.04366,0.07403 -0.05505,0.11579z" fill="#f9bea6" stroke-width="1"/><g stroke-width="1"><path d="M246.45067,186.05575c-0.38653,0.4277 -0.64727,0.89087 -0.78221,1.38944c-0.79594,-0.09377 -1.5141,0.0423 -2.15452,0.40828c-1.1253,0.64498 -1.75654,0.74103 -2.84752,0.11322c-0.09402,-0.05481 -0.20581,-0.06848 -0.30877,-0.03774c-1.20419,0.33621 -2.43926,0.95374 -3.50279,-0.24358c-0.07548,-0.08463 -0.17038,-0.12924 -0.28476,-0.13381c-0.85541,-0.0366 -1.61931,-0.31105 -2.29174,-0.82338c0.02288,-0.46429 -0.05489,-0.82909 -0.23328,-1.09441c0.50432,-1.81828 2.86466,-2.30203 4.48055,-2.59022c0.11894,-0.02058 0.18525,-0.09033 0.19899,-0.20927c0.21271,-1.86976 3.11854,-1.95553 3.25921,0.14065c0.00687,0.11894 0.0686,0.19099 0.18526,0.21613c1.82858,0.40139 3.77382,0.96748 4.28157,2.86467zM241.06783,183.57876l0.09949,-0.89541c0.01374,-0.13265 -0.04003,-0.22529 -0.16124,-0.2779c-0.42084,-0.18069 -0.84168,-0.18069 -1.26253,0c-0.1374,0.06044 -0.21638,0.20714 -0.19211,0.35679l0.11663,0.66557c0.01589,0.0863 -0.0359,0.17067 -0.12005,0.19554c-1.29341,0.38082 -3.70178,0.61409 -4.4943,1.66047c-0.38423,0.51004 -0.31792,0.88056 0.19899,1.11156c0.46429,0.20814 1.05897,0.23099 1.78399,0.06861c0.11894,-0.02516 0.19785,0.01944 0.23673,0.1338c0.56607,1.68106 2.11676,0.75477 3.03621,0.02745c0.09148,-0.07319 0.17154,-0.06175 0.24016,0.03431c0.56723,0.79135 1.31739,1.03723 2.25055,0.73762c0.12578,-0.04117 0.20815,-0.12464 0.24701,-0.25045l0.18526,-0.55922c0.0343,-0.1052 0.10292,-0.13608 0.20586,-0.09263c0.4803,0.19898 0.97432,0.24243 1.48209,0.13036c0.22415,-0.05049 0.41029,-0.20583 0.50006,-0.41735c0.08975,-0.21152 0.0722,-0.45331 -0.04719,-0.64961c-0.59352,-0.97775 -3.09797,-1.55412 -4.16149,-1.78054c-0.10751,-0.02288 -0.15553,-0.0892 -0.14411,-0.19899z" fill="#3d8004"/><path d="M241.21194,183.77775c1.06354,0.22642 3.56798,0.80278 4.16149,1.78054c0.11941,0.19632 0.13697,0.43811 0.04719,0.64963c-0.08975,0.21152 -0.2759,0.36683 -0.50005,0.41735c-0.50774,0.11208 -1.00178,0.06862 -1.48208,-0.13037c-0.10292,-0.04347 -0.17154,-0.01257 -0.20586,0.09262l-0.18526,0.55922c-0.03888,0.12578 -0.12122,0.20929 -0.24702,0.25046c-0.93316,0.29963 -1.68334,0.05374 -2.25055,-0.73762c-0.06863,-0.09607 -0.14866,-0.10751 -0.24016,-0.03431c-0.91943,0.72731 -2.47013,1.65362 -3.03621,-0.02745c-0.03888,-0.11435 -0.11779,-0.15895 -0.23673,-0.13379c-0.72502,0.16238 -1.31969,0.13951 -1.78399,-0.06863c-0.51689,-0.23101 -0.58324,-0.60152 -0.19899,-1.11155c0.79251,-1.04639 3.20089,-1.27968 4.4943,-1.66047c0.08415,-0.02488 0.13595,-0.10925 0.12006,-0.19555l-0.11664,-0.66557c-0.02427,-0.14965 0.05471,-0.29636 0.19212,-0.3568c0.42084,-0.18069 0.84169,-0.18069 1.26253,0c0.12122,0.05262 0.17498,0.14525 0.16124,0.2779l-0.09949,0.89541c-0.01144,0.10979 0.0366,0.17615 0.1441,0.199z" fill="#9ad915"/><path d="M234.04509,185.63379c0.1784,0.26533 0.25617,0.63009 0.23328,1.0944c-5.65386,3.23518 -4.71385,8.98511 -1.24193,13.46224c1.59187,2.04816 4.14434,3.39986 6.75172,3.03622c1.13444,-0.16009 2.23112,-0.5775 3.29008,-1.25221c0.26533,0.29504 0.42997,0.07777 0.49402,-0.65184l1.9624,-2.39465c0.36824,-0.09148 0.57521,-0.49977 0.62097,-1.22478l1.22133,-2.58333c0.61525,-0.09377 0.77535,-0.62212 0.48031,-1.58501c0.05032,-2.17967 -0.67928,-4.20952 -2.18883,-6.08958c0.13495,-0.49861 0.39567,-0.96176 0.78221,-1.38944c8.48422,4.72758 3.06708,13.73671 -1.96581,18.19325c-4.81676,4.26786 -9.57864,0.56263 -12.46047,-3.54739c-1.92464,-2.74461 -3.55768,-6.35374 -2.65196,-9.65754c0.6587,-2.40152 2.21626,-4.20494 4.67268,-5.41027z" fill="#f51515"/><path d="M234.27838,186.72818c0.67243,0.51232 1.43633,0.78678 2.29174,0.82339c0.11435,0.00457 0.20927,0.04917 0.28476,0.1338c1.06354,1.19732 2.2986,0.57981 3.5028,0.24359c0.10297,-0.03074 0.21474,-0.01711 0.30877,0.03772c1.09098,0.62784 1.72223,0.53177 2.84752,-0.1132c0.6404,-0.36594 1.35859,-0.50203 2.15452,-0.40828c1.50952,1.88005 2.23912,3.90991 2.18882,6.08958c-0.74333,-0.06634 -0.90343,0.46201 -0.4803,1.58501l-1.22134,2.58334c-0.69301,-0.24243 -0.9,0.16581 -0.62096,1.22477l-1.9624,2.39467c-0.15095,-0.40024 -0.37855,-0.33277 -0.68272,0.20242c-0.05032,0.09148 -0.07661,0.17839 -0.07889,0.26072c-0.00687,0.19441 0.08234,0.25732 0.2676,0.18869c-1.05896,0.67472 -2.15564,1.09212 -3.29007,1.25221c-2.60736,0.36365 -5.15985,-0.98803 -6.75172,-3.03621c-3.47192,-4.47713 -4.41194,-10.22704 1.24193,-13.46225zM245.31423,192.06376c0.29552,-0.05852 0.46023,-0.48414 0.36785,-0.95068c-0.09237,-0.46652 -0.40681,-0.79729 -0.70235,-0.73878c-0.29552,0.05852 -0.46022,0.48415 -0.36784,0.95068c0.09237,0.46652 0.40682,0.79728 0.70234,0.73878zM233.55553,192.71813c0.38649,0.00606 0.707,-0.44824 0.7159,-1.01469c0.0089,-0.56644 -0.2972,-1.03054 -0.68366,-1.03663c-0.38649,-0.00606 -0.70699,0.44823 -0.7159,1.01469c-0.0089,0.56644 0.29719,1.03055 0.68365,1.03664zM239.92925,191.32216c-0.00481,-0.10999 -0.05311,-0.21358 -0.1343,-0.28795c-0.08116,-0.07437 -0.18857,-0.11344 -0.29857,-0.10865l-0.11651,0.00507c-0.10999,0.0048 -0.21358,0.0531 -0.28794,0.13427c-0.07437,0.08116 -0.11346,0.18857 -0.10866,0.29856l0.02572,0.58956c0.00481,0.10999 0.05311,0.21357 0.1343,0.28793c0.08116,0.07437 0.18858,0.11345 0.29857,0.10865l0.11651,-0.00507c0.10999,-0.0048 0.21358,-0.0531 0.28794,-0.13427c0.07437,-0.08116 0.11345,-0.18856 0.10866,-0.29856zM241.86718,195.01c-0.09607,0.09148 -0.1395,0.20241 -0.13036,0.33278c0.03888,0.50317 0.25159,0.92517 0.63811,1.26594c0.17359,0.15179 0.40556,0.21884 0.63337,0.18305c0.2278,-0.03576 0.42807,-0.17065 0.54683,-0.36832c0.4963,-0.82565 0.51689,-1.67419 0.06175,-2.54561c-0.04187,-0.07977 -0.11824,-0.13574 -0.20646,-0.15123c-0.08822,-0.01549 -0.17812,0.01127 -0.24296,0.07232zM235.77761,193.88815c-1.4169,2.60394 2.07903,4.05858 1.90406,1.15959c-0.00687,-0.10751 -0.05488,-0.19214 -0.14408,-0.25389l-1.45807,-0.97776c-0.04877,-0.03345 -0.10942,-0.04468 -0.16695,-0.03096c-0.05754,0.01374 -0.10654,0.05115 -0.13498,0.10302zM232.48548,196.5712c0.27669,-0.11916 0.33757,-0.59525 0.13596,-1.06336c-0.2016,-0.4681 -0.58934,-0.751 -0.86602,-0.63183c-0.27669,0.11916 -0.33757,0.59525 -0.13597,1.06335c0.2016,0.4681 0.58932,0.751 0.86602,0.63184zM240.76937,196.19018l-2.00356,0.08577c-0.12106,0.00535 -0.23503,0.0586 -0.31677,0.14806c-0.08175,0.08946 -0.12453,0.20777 -0.11894,0.3288l0.01717,0.39454c0.02911,0.66248 0.56511,1.17701 1.19732,1.1493l0.6244,-0.02745c0.63136,-0.02842 1.11947,-0.58713 1.09098,-1.2488l-0.01716,-0.39453c-0.01115,-0.25072 -0.22265,-0.44539 -0.47344,-0.43571zM235.79445,199.00338c0.0932,-0.03652 0.16344,-0.12034 0.1953,-0.23302c0.03187,-0.11269 0.0227,-0.245 -0.02544,-0.36785c-0.04814,-0.12286 -0.13133,-0.22613 -0.23127,-0.28717c-0.09995,-0.06102 -0.20844,-0.07481 -0.30163,-0.03826c-0.0932,0.03652 -0.16343,0.12035 -0.1953,0.23304c-0.03187,0.11269 -0.0227,0.24499 0.02544,0.36784c0.04814,0.12286 0.13134,0.22615 0.23127,0.28718c0.09995,0.06102 0.20843,0.07479 0.30162,0.03826zM238.6094,203.11654c0.09374,-0.02634 0.16503,-0.11771 0.19824,-0.25403c0.0332,-0.13631 0.02558,-0.30638 -0.02121,-0.47283c-0.0974,-0.34658 -0.3346,-0.58304 -0.52977,-0.52819c-0.09374,0.02634 -0.16504,0.11771 -0.19823,0.25402c-0.0332,0.13631 -0.02558,0.30639 0.02121,0.47282c0.0974,0.34658 0.3346,0.58305 0.52978,0.5282z" fill="#fe6c4b"/><path d="M244.97973,190.37431c0.29552,-0.05852 0.60998,0.27224 0.70236,0.73877c0.09237,0.46653 -0.07231,0.89215 -0.36784,0.95068c-0.29552,0.05852 -0.60999,-0.27224 -0.70236,-0.73877c-0.09237,-0.46653 0.07233,-0.89216 0.36784,-0.95068z" fill="#fef271"/><path d="M233.58776,190.66681c0.38649,0.00606 0.69259,0.47021 0.68368,1.03665c-0.00891,0.56645 -0.32942,1.02076 -0.7159,1.01469c-0.38649,-0.00606 -0.69258,-0.47021 -0.68368,-1.03666c0.00891,-0.56645 0.32941,-1.02076 0.7159,-1.01468z" fill="#fef271"/><path d="M239.44181,192.34962c-0.22903,0.01 -0.41474,0.01809 -0.41474,0.01809l-0.06195,-1.41897c0,0 0.18568,-0.0081 0.41474,-0.01812l0.11653,-0.00509c0.22903,-0.01 0.41474,-0.01811 0.41474,-0.01811l0.06196,1.41897c0,0 -0.18568,0.00809 -0.41474,0.0181z" fill="#fef271"/><path d="M247.85728,193.53478c0.29504,0.96289 0.13495,1.49123 -0.4803,1.58501c-0.42312,-1.123 -0.26303,-1.65134 0.4803,-1.58501z" fill="#fef271"/><path d="M241.86718,195.01l1.30026,-1.21105c0.06484,-0.06103 0.15474,-0.0878 0.24295,-0.07231c0.08822,0.01549 0.16461,0.07144 0.20647,0.15122c0.45516,0.87142 0.43455,1.71993 -0.06176,2.54561c-0.11875,0.19768 -0.319,0.33256 -0.54682,0.36832c-0.2278,0.03576 -0.45978,-0.03126 -0.63337,-0.18304c-0.38653,-0.34078 -0.59924,-0.76276 -0.63811,-1.26594c-0.00913,-0.13037 0.0343,-0.2413 0.13036,-0.33279z" fill="#d10504"/><path d="M237.68168,195.04774c0.17498,2.89899 -3.32096,1.44434 -1.90406,-1.15959c0.02842,-0.05187 0.07744,-0.08928 0.13498,-0.10302c0.05754,-0.01374 0.11816,-0.00248 0.16695,0.03096l1.45807,0.97776c0.0892,0.06175 0.13721,0.14639 0.14409,0.25389z" fill="#d10504"/><path d="M231.75542,194.87598c0.27669,-0.11916 0.66442,0.16372 0.86603,0.63184c0.20162,0.46813 0.14073,0.94421 -0.13596,1.06338c-0.27669,0.11916 -0.66443,-0.16372 -0.86604,-0.63184c-0.20162,-0.46813 -0.14073,-0.9442 0.13597,-1.06338z" fill="#fef271"/><path d="M240.76937,196.19018c0.25079,-0.00968 0.46229,0.18497 0.47344,0.4357l0.01716,0.39455c0.0285,0.66165 -0.45962,1.22039 -1.09098,1.2488l-0.6244,0.02744c-0.6322,0.02771 -1.16821,-0.48683 -1.19732,-1.1493l-0.01717,-0.39454c-0.00558,-0.12105 0.0372,-0.23935 0.11894,-0.32881c0.08175,-0.08946 0.19569,-0.14271 0.31677,-0.14806zM240.42628,196.87289l-1.13902,-0.02401c-0.08205,-0.00002 -0.14908,0.06549 -0.15094,0.14752l-0.00343,0.11665c-0.00515,0.29521 0.24971,0.53931 0.5695,0.54549l0.28131,0.00687c0.15398,0.00301 0.30271,-0.05062 0.4134,-0.14909c0.11072,-0.09847 0.17425,-0.23369 0.17669,-0.37583v-0.11664c0.00002,-0.08205 -0.0655,-0.14909 -0.14753,-0.15096z" fill="#d10504"/><path d="M240.42628,196.87289c0.08203,0.00186 0.14755,0.06891 0.14753,0.15096v0.11664c-0.00241,0.14212 -0.06599,0.27737 -0.1767,0.37583c-0.11072,0.09847 -0.25944,0.15211 -0.4134,0.14909l-0.28132,-0.00687c-0.3198,-0.00618 -0.57462,-0.25028 -0.5695,-0.54549l0.00343,-0.11665c0.00186,-0.08203 0.06889,-0.14754 0.15094,-0.14752z" fill="#ffc7c1"/><path d="M246.15562,197.70314c-0.04573,0.72502 -0.25272,1.13328 -0.62097,1.22478c-0.27903,-1.05896 -0.07205,-1.46722 0.62097,-1.22478z" fill="#fef271"/><path d="M235.43143,198.07707c0.19406,-0.07605 0.43264,0.06968 0.53288,0.32548c0.10027,0.25578 0.02419,0.52481 -0.16986,0.60084c-0.19406,0.07605 -0.43263,-0.06968 -0.53288,-0.32547c-0.10027,-0.25578 -0.02419,-0.52482 0.16986,-0.60085z" fill="#fef271"/><path d="M243.57228,201.32257c-0.06405,0.7296 -0.22871,0.94689 -0.49402,0.65184c-0.18526,0.06863 -0.27446,0.00571 -0.26759,-0.18869c0.00231,-0.08234 0.02861,-0.16924 0.0789,-0.26072c0.30419,-0.53521 0.53177,-0.60267 0.68271,-0.20242z" fill="#fef271"/><path d="M238.25664,201.86151c0.19518,-0.05487 0.43237,0.18162 0.52978,0.52818c0.0974,0.34658 0.01817,0.672 -0.17702,0.72686c-0.19518,0.05487 -0.43237,-0.18164 -0.52978,-0.52819c-0.0974,-0.34658 -0.01818,-0.67198 0.17701,-0.72684z" fill="#fef271"/></g></g></g></svg>