<svg version="1.1" xmlns="http://www.w3.org/2000/svg" xmlns:xlink="http://www.w3.org/1999/xlink" width="79.30057" height="55.11172" viewBox="0,0,79.30057,55.11172"><g transform="translate(-222.74279,-156.88929)"><g data-paper-data="{&quot;isPaintingLayer&quot;:true}" fill-rule="nonzero" stroke="none" stroke-linecap="butt" stroke-linejoin="miter" stroke-miterlimit="10" stroke-dasharray="" stroke-dashoffset="0" style="mix-blend-mode: normal"><path d="M293.13332,168.56289c0.72385,0.5315 1.32686,1.24966 1.80901,2.15447c0.38533,0.72701 0.39103,1.56982 1.21486,2.20382c1.58691,1.21866 2.9087,2.67459 3.96537,4.3678c0.15186,0.24424 0.33978,0.62831 0.56377,1.15222c0.22778,0.5315 0.55048,1.03263 0.70803,1.56034c0.55238,1.83937 0.83901,3.37693 0.50872,5.26564c-0.09618,0.54542 -0.37901,1.38317 -0.8485,2.51324c-0.58275,1.39899 -1.60589,2.50944 -2.65181,3.56295c-0.87507,0.87887 -2.0216,1.48441 -3.0789,2.21332c-0.31005,0.21386 -0.57516,0.47835 -0.79535,0.79345c-0.80864,1.1617 -1.63057,2.53791 -2.48476,3.48513c-1.70207,1.88809 -3.76669,3.14218 -6.19387,3.76226c-2.62713,0.67197 -5.45168,0.40242 -8.03135,-0.45937c-0.50493,-0.16704 -0.79725,-0.09871 -1.2756,0.17464c-2.53096,1.4515 -5.24223,2.02413 -8.13385,1.71788c-0.80294,-0.08352 -1.73307,-0.34358 -2.58157,-0.5277c-1.18069,-0.25626 -1.86405,-0.00759 -3.06562,0.23538c-1.04528,0.2088 -1.94377,0.17021 -2.69547,-0.11579c-1.23004,-0.46886 -1.78432,-0.51821 -3.13965,-0.19362c-2.17535,0.51821 -4.22923,0.05885 -6.37421,-0.48215c-2.18484,-0.55238 -3.84957,-1.42556 -5.48014,-2.84163c-0.4195,-0.36445 -1.20157,-0.90165 -1.53755,-1.52047c-0.39989,-0.7403 -0.77573,-1.69574 -1.12753,-2.86631c-0.04366,-0.14236 -0.2145,-0.37775 -0.33788,-0.46506c-0.86559,-0.60743 -1.82609,-1.16361 -2.5474,-1.87923c-0.99466,-0.98327 -1.99123,-2.1241 -2.60815,-3.39021c-0.17843,-0.36445 -0.41887,-1.18512 -0.72132,-2.46198c-0.24297,-1.02504 -0.20501,-2.03298 -0.23348,-3.0846c-0.08731,-3.20419 2.17156,-6.52227 4.67531,-8.32747c0.2183,-0.15755 0.43849,-0.62831 0.5334,-0.94911c0.53529,-1.83558 1.46542,-3.35415 3.00867,-4.56142c0.76182,-0.59604 1.4205,-1.01934 1.97604,-1.2699c0.77257,-0.34737 1.10096,-0.51252 1.58121,-1.26421c3.02955,-4.74174 8.14334,-7.90417 13.57604,-9.19875c4.35071,-1.03642 8.61916,-1.24839 12.80535,-0.63591c0.60996,0.08985 2.00452,0.38913 4.18367,0.89786c0.69855,0.16324 1.40658,0.50872 2.17346,0.80675c2.43858,0.9491 4.66518,2.39744 6.67982,4.34501c0.40242,0.38723 1.14716,1.38 2.2342,2.9783c0.18223,0.26828 0.39926,0.46759 0.65108,0.59794c0.3556,0.18603 0.72702,0.34358 1.11426,0.47266c0.36698,0.12275 1.02757,0.53403 1.98174,1.23384z" fill="#fedf55" stroke-width="0.5"/><path d="M280.29,160.97383l-1.33444,-0.28093c-0.08099,-0.01645 -0.12402,0.01645 -0.12908,0.0987c-0.03543,0.61249 0.20438,1.02884 0.71943,1.24903c0.26322,0.1139 0.46127,0.20943 0.59414,0.28663c0.19488,0.11389 0.39926,0.20437 0.61312,0.27144c0.39483,0.12401 0.66754,0.23221 0.81813,0.32459c0.37079,0.23032 0.59857,0.42457 0.68336,0.58275c0.22272,0.41761 0.51062,0.78776 0.86369,1.11046c0.02594,0.02344 0.04444,0.0545 0.05315,0.08921l0.11958,0.44608c0.02152,0.08352 0.07087,0.14363 0.14806,0.18033c0.24424,0.12149 0.40495,0.31321 0.48215,0.57516c0.02025,0.0658 0.05631,0.12148 0.1082,0.16704c0.17464,0.14806 0.29928,0.33472 0.37394,0.55998c0.01898,0.05821 0.04682,0.11073 0.08352,0.15755c0.51885,0.65932 0.79852,1.40152 0.83902,2.22661c0.01518,0.29486 0.05315,0.56947 0.11389,0.82383c0.15186,0.6359 0.04935,1.42556 0.91684,1.5869c0.78206,0.14553 1.54388,0.36193 2.28545,0.64919c0.49543,0.19362 0.83332,0.50682 1.26991,0.80484c0.33029,0.22652 0.60489,0.47898 0.82382,0.75738c0.33409,0.4271 0.59414,0.74221 0.85799,1.2775c0.23032,0.46949 0.54669,0.86875 0.94911,1.19778c0.34294,0.27967 0.58718,0.51315 0.73271,0.70045c0.59857,0.7732 1.00606,1.32748 1.22245,1.66283c0.29106,0.45177 0.45684,0.77636 0.49734,0.97378c0.16451,0.78966 0.2512,1.58691 0.26005,2.39176c0.00633,0.5391 -0.08352,1.08451 -0.26955,1.63626c-0.24424,0.72764 -0.52707,1.43948 -0.8485,2.13549c-0.65868,1.42176 -1.96655,2.53601 -3.20608,3.43956c-0.36256,0.26575 -0.83522,1.07249 -1.03074,1.62488c-0.26575,0.75169 -0.60553,1.46479 -1.01934,2.13929c-0.52897,0.86432 -0.96556,1.51793 -1.30976,1.96085c-0.55554,0.71246 -1.23954,1.30344 -2.05198,1.77294c-1.3376,0.7732 -2.77013,1.31167 -4.29755,1.61538c-0.82763,0.16325 -1.06869,0.60743 -0.75739,1.39899c-0.85293,-0.02278 -1.52301,-0.18856 -2.01021,-0.49734c-0.50872,-0.32269 -1.07819,-0.41697 -1.70839,-0.28283c-0.31131,0.0658 -0.54985,0.20943 -0.71562,0.43089c-0.03796,0.05061 -0.08542,0.08985 -0.14236,0.11769c-0.93772,0.46506 -1.84886,0.99846 -2.85492,1.20157c-1.2756,0.25942 -2.56258,0.35813 -3.86096,0.29612c-1.07059,-0.05315 -2.23989,-0.33598 -3.35225,-0.55807c-1.25472,-0.24866 -2.49426,0.25816 -3.73949,0.3189c-1.29269,0.06454 -2.4392,-0.61312 -3.7243,-0.54289c-0.76878,0.04176 -1.55844,0.28474 -2.27407,0.3151c-1.8805,0.07973 -3.76416,-0.15439 -5.65098,-0.70234c-0.7403,-0.2145 -1.34015,-0.55428 -2.0216,-0.92633c-0.24677,-0.13414 -0.48595,-0.30751 -0.71753,-0.52011c-0.50113,-0.46063 -1.02377,-0.89785 -1.56792,-1.31167c-0.18603,-0.14047 -0.3322,-0.36699 -0.43849,-0.67956c-0.14616,-0.4271 -0.14426,-1.04971 -0.205,-1.55463c-0.03037,-0.24297 -0.12276,-0.47772 -0.27714,-0.70424c-0.19742,-0.28473 -0.34927,-0.59984 -0.6321,-0.80675c-0.4271,-0.317 -0.77067,-0.66248 -1.24523,-0.90165c-0.44418,-0.22399 -0.88837,-0.44988 -1.33255,-0.67766c-0.34168,-0.1759 -0.60489,-0.38533 -0.78966,-0.62831c-0.14047,-0.18476 -0.26575,-0.37838 -0.37584,-0.58085c-0.1354,-0.24677 -0.255,-0.44229 -0.35877,-0.58656c-0.39229,-0.54415 -0.75612,-1.10665 -1.09147,-1.68751c-0.00253,-0.00379 -0.08668,-0.10566 -0.25247,-0.30561c-0.06074,-0.0734 -0.09807,-0.16198 -0.112,-0.26575c-0.00759,-0.06201 -0.031,-0.11705 -0.07023,-0.16514c-0.13414,-0.16199 -0.22525,-0.33978 -0.27334,-0.5334c-0.06581,-0.26322 -0.11136,-0.43026 -0.13667,-0.50113c-0.12022,-0.33029 -0.18413,-0.67703 -0.19172,-1.04022c-0.02025,-1.01111 -0.04935,-2.0235 -0.08732,-3.03715c-0.00253,-0.06201 0.01139,-0.12085 0.04176,-0.17653c0.13161,-0.23664 0.21134,-0.48404 0.23918,-0.7422c0.03417,-0.3151 0.08668,-0.54669 0.15755,-0.69475c0.6454,-1.34014 1.53945,-2.49236 2.68218,-3.45665c0.07593,-0.06454 0.1835,-0.08922 0.3227,-0.07403c0.0587,0.00614 0.11747,-0.0094 0.16515,-0.04366c0.37458,-0.26955 0.72006,-0.5701 1.03643,-0.90165c0.20754,-0.21893 0.32649,-0.48088 0.35686,-0.78586c0.10503,-1.02883 0.32397,-1.80394 0.65679,-2.32531c0.15819,-0.24677 0.50239,-0.63464 1.03262,-1.16361c0.37711,-0.37584 0.78333,-0.69284 1.21866,-0.951c0.48341,-0.28473 0.97821,-0.54985 1.4844,-0.79535c0.45557,-0.22146 0.79282,-0.44419 1.01175,-0.66817c0.51631,-0.5277 0.7403,-1.17309 1.25282,-1.7046c0.21133,-0.22019 0.40558,-0.45367 0.58275,-0.70045c0.20754,-0.28979 0.40053,-0.52011 0.57896,-0.69095c0.30372,-0.28853 0.60617,-0.57833 0.90735,-0.86938c0.19615,-0.18855 0.55175,-0.47266 1.0668,-0.8523c0.50492,-0.37394 0.89785,-0.87127 1.39139,-1.19777c0.65931,-0.43532 1.32242,-0.86369 1.98933,-1.28509c0.12022,-0.07593 0.36003,-0.17843 0.71943,-0.30751c0.35496,-0.12718 0.62072,-0.40242 0.93392,-0.51631c0.97695,-0.35686 1.96023,-0.69728 2.94983,-1.02124c2.13485,-0.69854 4.18683,-1.08578 6.15591,-1.16171c1.02124,-0.03796 2.60182,-0.01075 4.74174,0.08163c3.10548,0.13667 5.57506,0.52011 8.35974,1.72738zM258.20806,178.98219c0,-0.92884 -0.75298,-1.68182 -1.68182,-1.68182c-0.92884,0 -1.68182,0.75298 -1.68182,1.68182c0,0.92884 0.75297,1.68182 1.68182,1.68182c0.92884,0 1.68182,-0.75297 1.68182,-1.68182zM278.94193,179.93121c0.2509,-0.26439 0.3865,-0.61762 0.37695,-0.98199c-0.00954,-0.36436 -0.16343,-0.71001 -0.42782,-0.96091l-0.30844,-0.29269c-0.26439,-0.2509 -0.61762,-0.38649 -0.98199,-0.37695c-0.36437,0.00954 -0.71001,0.16342 -0.96091,0.42782l-0.29006,0.30567c-0.2509,0.26439 -0.3865,0.61763 -0.37695,0.98199c0.00954,0.36436 0.16343,0.71001 0.42782,0.96091l0.30844,0.29269c0.26439,0.2509 0.61762,0.38649 0.98199,0.37695c0.36437,-0.00954 0.71001,-0.16343 0.96092,-0.42782zM265.8294,180.28247c-0.5391,0.20691 -0.25436,1.2737 -0.04366,1.61158c0.66438,1.063 2.36707,1.21296 3.15293,0.20121c0.27524,-0.35686 0.90545,-1.70649 0.06454,-1.82987c-0.1895,-0.02671 -0.37227,0.08122 -0.44039,0.26005c-0.13667,0.35877 -0.15945,0.81813 -0.46316,1.0687c-0.39736,0.32903 -0.82636,0.36446 -1.28699,0.1063c-0.41761,-0.23348 -0.49164,-0.70424 -0.53151,-1.13893c-0.01029,-0.10361 -0.0683,-0.19651 -0.15689,-0.25123c-0.08859,-0.05472 -0.19763,-0.065 -0.29489,-0.02781zM284.57237,180.4666c-1.0611,-0.22209 -2.16586,-0.3284 -2.89477,0.59604c-0.18982,0.24171 -0.2841,0.51821 -0.28284,0.82952c0.0057,1.94757 0.84661,1.99123 2.48856,2.05577c0.74599,0.02847 2.11272,-0.24487 2.07665,-1.25851c-0.02278,-0.65552 -0.20121,-1.2155 -0.5353,-1.67993c-0.20754,-0.286 -0.49164,-0.46696 -0.8523,-0.54288zM253.73017,183.42592c0.18413,-0.25816 0.12909,-0.57896 0.15756,-0.79345c0.07782,-0.57137 0.0057,-1.61538 -0.56377,-1.94567c-0.56947,-0.33029 -1.51288,-0.31891 -2.18105,-0.23538c-0.59731,0.07466 -1.02567,0.22146 -1.28509,0.44038c-0.37964,0.32017 -0.53593,0.80232 -0.46886,1.44645c0.06581,0.62768 0.29612,1.08198 0.69095,1.36292c0.21767,0.15438 0.57643,0.24487 1.07629,0.27144c0.76308,0.04176 1.42366,0.15565 2.18674,-0.22209c0.02784,-0.01519 0.08795,-0.03227 0.18033,-0.05125c0.07846,-0.01772 0.12908,-0.07024 0.15186,-0.15756c0.01139,-0.04176 0.02973,-0.08035 0.05504,-0.11579z" fill="#fefc98" stroke-width="1"/><path d="M278.65782,180.24426c-0.2509,0.2644 -0.60225,0.42039 -0.96662,0.42993c-0.36437,0.00954 -0.72341,-0.12785 -0.9878,-0.37875l-0.31027,-0.29442c-0.26439,-0.2509 -0.42038,-0.60226 -0.42992,-0.96663c-0.00954,-0.36436 0.12785,-0.7234 0.37876,-0.98779l0.29179,-0.30749c0.2509,-0.2644 0.60226,-0.42039 0.96662,-0.42992c0.36437,-0.00954 0.72341,0.12784 0.9878,0.37874l0.31027,0.29443c0.26439,0.2509 0.42038,0.60226 0.42992,0.96663c0.00954,0.36437 -0.12786,0.7234 -0.37876,0.9878z" data-paper-data="{&quot;noHover&quot;:false,&quot;origItem&quot;:[&quot;Path&quot;,{&quot;applyMatrix&quot;:true,&quot;segments&quot;:[[[260.45861,179.85844],[0,0],[0.5163,-0.54406]],[[261.2343,177.8377],[0.01963,0.74979],[-0.01963,-0.74979]],[[260.35392,175.86032],[0.54407,0.5163],[0,0]],[[259.71921,175.25803],[0,0],[-0.54406,-0.5163]],[[257.69847,174.48234],[0.74979,-0.01963],[-0.74979,0.01963]],[[255.72109,175.36272],[0.5163,-0.54407],[0,0]],[[255.12419,175.99173],[0,0],[-0.5163,0.54406]],[[254.3485,178.01247],[-0.01963,-0.74979],[0.01963,0.74979]],[[255.22888,179.98984],[-0.54407,-0.5163],[0,0]],[[255.86359,180.59213],[0,0],[0.54406,0.5163]],[[257.88433,181.36783],[-0.74979,0.01963],[0.74979,-0.01963]],[[259.86171,180.48745],[-0.5163,0.54407],[0,0]]],&quot;closed&quot;:true,&quot;fillColor&quot;:[0,0,0,1]}]}" fill="#7f6b6a" stroke-width="0.5"/><path d="M280.29,160.97383l1.32875,0.59035c1.28573,0.7732 2.26204,1.47175 2.92894,2.09563c0.12655,0.11769 0.35623,0.3613 0.68905,0.73082c0.12781,0.14174 0.32397,0.41191 0.58845,0.81054c0.14553,0.22019 0.31068,0.42394 0.49543,0.61122c0.23285,0.23412 0.39989,0.4328 0.50113,0.59605c0.23158,0.37584 0.4948,0.83331 0.78965,1.37241c0.15438,0.286 0.38913,0.51885 0.70424,0.69854c0.00759,0.00379 0.01139,0.01012 0.01139,0.01898c0,0.01645 0,0.0329 0,0.04935c0,0.04049 0.01898,0.06897 0.05694,0.08542c0.3594,0.15439 0.70488,0.33282 1.03643,0.5353c0.3265,0.19931 0.69854,0.20501 1.03832,0.39293c0.29485,0.16198 0.53846,0.2784 0.73081,0.34927c0.56567,0.2088 1.02757,0.5644 1.3857,1.0668c0.03037,0.04303 0.06833,0.07783 0.11389,0.1044c0.15059,0.08606 0.24108,0.21766 0.27145,0.39482c0.00975,0.05255 0.03881,0.09986 0.08162,0.13288c0.26196,0.20311 0.38724,0.99276 0.52391,1.60969c0.01518,0.06707 0.05189,0.11959 0.1101,0.15755c0.50366,0.32523 0.9219,0.73208 1.25473,1.22055c0.00813,0.01193 0.06165,0.0546 0.13098,0.1044c0.10883,0.07972 0.26891,0.23158 0.48025,0.45558c0.83648,0.8871 1.67233,1.82545 2.50754,2.81505c0.61755,1.12754 1.13893,2.3367 1.56413,3.62749c0.0987,0.30119 0.15565,0.64793 0.17083,1.04023c0.03987,0.99276 0.24108,1.92099 -0.08352,2.90426c-0.22146,0.6707 -0.47012,1.33128 -0.74599,1.98174c-0.18476,0.43912 -0.43216,0.82509 -0.74221,1.15791c-1.26042,1.35912 -2.72457,2.46135 -4.39247,3.30669c-0.19362,0.0987 -0.39673,0.32649 -0.52011,0.54479c-1.13133,1.98047 -2.2671,3.52752 -3.4073,4.64114c-0.49227,0.47961 -1.2003,0.98074 -2.1241,1.50338c-2.13739,1.20917 -4.92208,1.29459 -7.30433,0.88837c-0.31131,-0.79155 -0.07024,-1.23574 0.75739,-1.39899c1.52743,-0.30371 2.95995,-0.84217 4.29755,-1.61538c0.81243,-0.46949 1.49643,-1.06047 2.05198,-1.77293c0.34421,-0.44292 0.7808,-1.09654 1.30976,-1.96086c0.41381,-0.6745 0.75359,-1.3876 1.01934,-2.13929c0.19552,-0.55238 0.66818,-1.35912 1.03073,-1.62488c1.23953,-0.90355 2.5474,-2.0178 3.20608,-3.43957c0.32143,-0.69601 0.60426,-1.40784 0.8485,-2.13549c0.18602,-0.55174 0.27587,-1.09716 0.26955,-1.63626c-0.00886,-0.80484 -0.09554,-1.60209 -0.26005,-2.39175c-0.0405,-0.19742 -0.20628,-0.52201 -0.49734,-0.97378c-0.21639,-0.33535 -0.62388,-0.88963 -1.22245,-1.66284c-0.14553,-0.18729 -0.38977,-0.42077 -0.73271,-0.70045c-0.40242,-0.32903 -0.71879,-0.72828 -0.94911,-1.19778c-0.26385,-0.53529 -0.52391,-0.8504 -0.858,-1.2775c-0.21893,-0.2784 -0.49353,-0.53087 -0.82382,-0.75738c-0.43659,-0.29802 -0.77447,-0.61122 -1.2699,-0.80484c-0.74157,-0.28726 -1.50338,-0.50366 -2.28545,-0.64919c-0.86748,-0.16135 -0.76498,-0.95101 -0.91684,-1.58691c-0.06074,-0.25437 -0.0987,-0.52898 -0.11389,-0.82383c-0.0405,-0.82509 -0.32017,-1.56729 -0.83902,-2.22661c-0.0367,-0.04682 -0.06454,-0.09934 -0.08352,-0.15755c-0.07466,-0.22526 -0.19932,-0.41191 -0.37394,-0.55998c-0.05189,-0.04556 -0.08795,-0.10123 -0.1082,-0.16704c-0.0772,-0.26196 -0.23791,-0.45367 -0.48215,-0.57516c-0.0772,-0.0367 -0.12654,-0.09681 -0.14806,-0.18033l-0.11958,-0.44608c-0.00871,-0.03472 -0.02721,-0.06578 -0.05315,-0.08922c-0.35307,-0.32269 -0.64096,-0.69285 -0.86369,-1.11046c-0.08479,-0.15819 -0.31257,-0.35243 -0.68336,-0.58275c-0.15059,-0.09238 -0.4233,-0.20057 -0.81813,-0.32459c-0.21386,-0.06707 -0.41824,-0.15755 -0.61312,-0.27144c-0.13288,-0.07719 -0.33093,-0.17273 -0.59414,-0.28663c-0.51505,-0.22019 -0.75486,-0.63654 -0.71943,-1.24903c0.00507,-0.08225 0.04809,-0.11515 0.12908,-0.0987z" fill="#fffcde" stroke-width="1"/><path d="M281.61875,161.56417c0.49986,0.15565 0.98961,0.39862 1.46922,0.72892c0.64666,0.44292 1.19777,0.85673 1.65335,1.24143c0.04303,0.0367 0.07023,0.08289 0.08162,0.13857c0.01645,0.08731 0.0696,0.13414 0.15945,0.14047c0.06327,0.00507 0.11832,0.02847 0.16514,0.07023c0.18856,0.16324 0.5315,0.42203 1.02883,0.77636c0.33409,0.23791 0.61059,0.59161 0.82952,1.0611c0.07972,0.16831 0.19425,0.34358 0.34358,0.5258c0.13667,0.16704 0.24804,0.34991 0.33409,0.54859c0.06454,0.14933 0.15375,0.31447 0.26764,0.49544c0.14616,0.23348 0.17464,0.49164 0.33219,0.68526c0.32903,0.40748 0.71689,0.68715 1.1636,0.83901c0.77321,0.26196 1.40025,0.49038 1.88113,0.68526c0.30498,0.12275 0.57453,0.31068 0.80865,0.56377c0.81434,0.88077 1.2737,1.45403 1.56222,2.57967c0.01518,0.06328 0.04999,0.11263 0.10441,0.14806c0.11136,0.07213 0.19678,0.16641 0.25625,0.28284c0.24424,0.47455 0.55681,0.89089 0.93772,1.24902c0.46823,0.43912 0.70614,0.66248 0.71373,0.67007c0.81243,0.85167 1.62551,1.72612 2.43921,2.62334c0.02096,0.02606 0.02031,0.06388 -0.00151,0.08902c-0.02182,0.02514 -0.05827,0.03006 -0.08581,0.01158c-0.12908,-0.09238 -0.25436,-0.22019 -0.37585,-0.38344c-0.02278,-0.03291 -0.04682,-0.05379 -0.07213,-0.06264c-0.02784,-0.01012 -0.03354,-0.00316 -0.01709,0.02088l0.45177,0.67956c-0.83522,-0.98961 -1.67106,-1.92795 -2.50754,-2.81505c-0.21134,-0.22399 -0.37142,-0.37585 -0.48025,-0.45557c-0.06932,-0.04981 -0.12285,-0.09247 -0.13098,-0.1044c-0.33282,-0.48848 -0.75106,-0.89533 -1.25472,-1.22055c-0.05821,-0.03797 -0.09492,-0.09048 -0.1101,-0.15755c-0.13667,-0.61692 -0.26195,-1.40658 -0.5239,-1.60969c-0.04282,-0.03301 -0.07188,-0.08033 -0.08163,-0.13287c-0.03037,-0.17717 -0.12085,-0.30877 -0.27144,-0.39482c-0.04556,-0.02658 -0.08352,-0.06138 -0.11389,-0.10441c-0.35813,-0.50239 -0.82003,-0.85799 -1.3857,-1.0668c-0.19236,-0.07086 -0.43596,-0.18729 -0.73081,-0.34927c-0.33978,-0.18792 -0.71182,-0.19362 -1.03832,-0.39293c-0.33155,-0.20247 -0.67703,-0.38091 -1.03643,-0.53529c-0.03796,-0.01645 -0.05694,-0.04493 -0.05694,-0.08543c0,-0.01645 0,-0.0329 0,-0.04935c0,-0.00886 -0.0038,-0.01519 -0.01139,-0.01899c-0.3151,-0.1797 -0.54985,-0.41254 -0.70423,-0.69854c-0.29485,-0.53909 -0.55808,-0.99656 -0.78966,-1.37241c-0.10124,-0.16324 -0.26828,-0.36192 -0.50113,-0.59605c-0.18476,-0.18729 -0.3499,-0.39103 -0.49543,-0.61122c-0.26448,-0.39862 -0.46064,-0.6688 -0.58845,-0.81053c-0.33282,-0.36952 -0.5625,-0.61312 -0.68905,-0.73082c-0.66691,-0.62388 -1.64322,-1.32242 -2.92894,-2.09563z" fill="#fefc98" stroke-width="1"/><path d="M254.84443,178.98219c0,-0.92884 0.75297,-1.68182 1.68182,-1.68182c0.92884,0 1.68182,0.75298 1.68182,1.68182c0,0.92884 -0.75298,1.68182 -1.68182,1.68182c-0.92884,0 -1.68182,-0.75297 -1.68182,-1.68182z" fill="#7f6b6a" stroke-width="1"/><path d="M265.78574,181.89405c-0.2107,-0.33788 -0.49544,-1.40468 0.04366,-1.61158c0.09726,-0.03719 0.20629,-0.02691 0.29489,0.02781c0.08859,0.05472 0.1466,0.14762 0.15689,0.25123c0.03986,0.43469 0.1139,0.90545 0.53151,1.13893c0.46063,0.25816 0.88963,0.22272 1.28699,-0.1063c0.30372,-0.25057 0.32649,-0.70994 0.46316,-1.0687c0.06812,-0.17883 0.25089,-0.28677 0.44039,-0.26005c0.84091,0.12339 0.2107,1.47301 -0.06454,1.82988c-0.78586,1.01175 -2.48856,0.86179 -3.15293,-0.20121z" fill="#6d6555" stroke-width="1"/><path d="M285.42467,181.00949c0.33409,0.46443 0.51252,1.02441 0.5353,1.67992c0.03607,1.01364 -1.33065,1.28698 -2.07665,1.25851c-1.64195,-0.06454 -2.48287,-0.1082 -2.48856,-2.05577c-0.00126,-0.31131 0.09301,-0.58781 0.28284,-0.82951c0.72891,-0.92443 1.83367,-0.81813 2.89477,-0.59604c0.36066,0.07593 0.64476,0.25689 0.8523,0.54289z" fill="#f9bea6" stroke-width="1"/><path d="M253.67513,183.5417c-0.02277,0.08731 -0.0734,0.13984 -0.15185,0.15756c-0.09238,0.01898 -0.1525,0.03606 -0.18034,0.05125c-0.76308,0.37775 -1.42365,0.26386 -2.18674,0.22209c-0.49986,-0.02658 -0.85862,-0.11705 -1.07629,-0.27144c-0.39483,-0.28093 -0.62515,-0.73524 -0.69095,-1.36292c-0.06707,-0.64412 0.08922,-1.12627 0.46886,-1.44644c0.25942,-0.21892 0.68778,-0.36573 1.28509,-0.44039c0.66817,-0.08352 1.61158,-0.09491 2.18105,0.23538c0.56947,0.33029 0.64159,1.3743 0.56377,1.94567c-0.02847,0.2145 0.02658,0.53529 -0.15755,0.79345c-0.02531,0.03543 -0.04366,0.07403 -0.05505,0.11579z" fill="#f9bea6" stroke-width="1"/><path d="M223.48181,194.8199c0,-9.22565 7.47886,-16.70451 16.70451,-16.70451c9.22565,0 16.70451,7.47886 16.70451,16.70451c0,9.22565 -7.47886,16.70451 -16.70451,16.70451c-9.22565,0 -16.70451,-7.47886 -16.70451,-16.70451z" fill="#fc9907" stroke-width="0"/><path d="M252.90396,206.54635c-2.07176,2.24635 -4.56071,3.87306 -7.46684,4.88016c-0.40164,0.13698 -0.80976,0.25862 -1.22439,0.36495c-0.25027,0.06361 -0.51724,0.10215 -0.80093,0.11562c-1.59073,0.07568 -3.18263,0.10563 -4.77569,0.08985c-0.75985,-0.00697 -1.55243,-0.06129 -2.33039,-0.11074c-0.23494,-0.01486 -0.45781,-0.05339 -0.66861,-0.11562c-5.68318,-1.67292 -10.47976,-5.97362 -12.13667,-11.74456c-0.0339,-0.11793 -0.14417,-0.47824 -0.33082,-1.08092c-0.30575,-0.99037 -0.40813,-2.05876 -0.42276,-3.0965c-0.01347,-0.9328 0.0065,-1.86468 0.0599,-2.79563c0.02926,-0.50425 0.08126,-0.96484 0.15601,-1.3818c0.28741,-1.5977 0.78585,-3.10184 1.49532,-4.51242c1.85632,-3.69036 4.6624,-6.42399 8.41822,-8.20092c0.31481,-0.14904 0.67209,-0.14557 0.81556,-0.52235c0.12397,-0.32595 -0.18247,-1.05864 -0.31132,-1.37762c-0.05084,-0.12606 -0.06687,-0.26187 -0.10239,-0.39281c-0.0065,-0.02322 -0.00464,-0.04573 0.00557,-0.06756c0.1379,-0.3018 0.27951,-0.60129 0.42484,-0.89844c0.06778,-0.13883 0.15137,-0.2498 0.25073,-0.33291c0.72572,-0.60802 1.50159,-0.60662 2.40769,-0.51748c0.76542,0.07591 1.6158,0.12188 2.32273,-0.04596c0.09937,-0.02368 0.19896,-0.02438 0.29878,-0.00209c0.44853,0.10075 0.90146,0.16924 1.35882,0.20545c0.30598,0.0246 0.76263,0.02415 1.36995,-0.0014c1.20536,-0.04968 2.19852,-0.05897 2.9795,-0.02786c0.66164,0.02646 1.36786,0.19431 2.11866,0.50355c0.02043,0.00835 0.03692,0.02182 0.04945,0.0404c0.14835,0.22217 0.61708,0.97227 0.55021,1.21813c-0.19431,0.7111 -0.42276,1.45144 -0.3559,2.12911c0.00186,0.02275 0.01301,0.03923 0.03343,0.04945c0.8613,0.4397 1.59608,0.82671 2.20433,1.16101c0.88591,0.48683 1.74535,1.14081 2.31089,2.00862c0.01278,0.01963 0.03031,0.03547 0.05084,0.04596c0.91795,0.47499 1.46259,1.29752 2.07478,2.01628c0.28741,0.33709 0.51353,0.63333 0.67836,0.88869c1.33444,2.06504 2.41326,4.32995 2.73851,6.79335c0.04458,0.33988 0.07127,0.79003 0.0801,1.35045c0.01996,1.33489 0.02879,2.21756 0.02646,2.64797c-0.00906,1.94176 -0.38097,3.89396 -1.19514,5.65742c-0.21311,0.46176 -0.43181,0.98133 -0.64075,1.39155c-0.67604,1.32701 -1.51505,2.54954 -2.51704,3.66761zM234.45448,177.10034c0.19222,0.59989 0.25398,1.20188 0.18526,1.80595c-0.02275,0.20059 -0.08195,0.41974 -0.1776,0.65747c-1.73746,0.59896 -3.31589,1.493 -4.7353,2.6821c-1.00152,0.83947 -1.91505,1.80431 -2.7406,2.89452c-1.01639,1.34233 -1.77321,2.79865 -2.27049,4.36894c-0.30273,0.95556 -0.52932,1.89347 -0.67975,2.81373c-0.26048,1.59282 -0.26466,3.23301 -0.06547,4.84394c0.19965,1.6158 0.67836,3.1499 1.43612,4.60227c0.28695,0.88638 0.722,1.68964 1.30518,2.40978c0.41185,0.50843 0.82531,1.01592 1.24042,1.52248c0.83019,1.01337 1.72445,1.79341 2.81861,2.46968c0.66814,0.60918 1.35533,1.06257 2.06155,1.3602c0.80512,0.33941 1.78459,0.69368 2.93841,1.06281c0.49356,0.15787 0.94255,0.27325 1.34697,0.34614c4.11405,0.74314 8.35276,-0.09263 11.85808,-2.3269c0.38399,-0.24423 0.75637,-0.52026 1.11714,-0.8281c1.06606,-0.91052 2.02858,-1.92226 2.88757,-3.03521c1.36184,-1.76486 2.34779,-3.71241 2.9579,-5.84268c0.10725,-0.37424 0.18642,-0.77958 0.23749,-1.21604c0.24377,-2.06782 0.30644,-4.00469 -0.10725,-6.03838c-0.07986,-0.39374 -0.20012,-0.84203 -0.36077,-1.34488c-0.28184,-0.88405 -0.54905,-1.64344 -0.80164,-2.27815c-0.19293,-0.48405 -0.50563,-1.01684 -0.87406,-1.43473c-0.12768,-0.1444 -0.24214,-0.28439 -0.34336,-0.41998c-1.2049,-2.15766 -3.06933,-3.82153 -5.06612,-5.19915c-0.59896,-0.41231 -1.17773,-0.66373 -1.85261,-0.86083c-0.02275,-0.0065 -0.04109,-0.01927 -0.05502,-0.0383c-0.20523,-0.27998 -0.41416,-0.55856 -0.62682,-0.83576c-0.18247,-0.23749 -0.1971,-0.42624 -0.13303,-0.70204c0.09333,-0.39931 0.19757,-0.79607 0.31272,-1.19027c0.08961,-0.30691 0.03877,-0.63378 -0.15252,-0.98063c-0.00997,-0.01863 -0.02551,-0.03391 -0.04458,-0.04387c-0.88591,-0.46385 -1.89369,-0.35102 -2.84508,-0.29252c-0.32363,0.0195 -0.64887,0.02693 -0.97576,0.02229c-0.89752,-0.01301 -1.79758,0.00023 -2.70021,0.0397c-0.47917,-0.25282 -0.87337,-0.45688 -1.30449,-0.37331c-0.27766,0.05433 -0.55044,0.1841 -0.81835,0.38932l-0.81905,0.08776c-0.02507,0.00278 -0.0462,-0.00511 -0.06338,-0.02368l-0.10934,-0.117c-0.36425,-0.37749 -0.83645,-0.49031 -1.33025,-0.28973c-0.53582,0.21823 -0.75265,0.66257 -0.6505,1.33304z" fill="#c1710e" stroke-width="1"/><path d="M236.43524,176.05704l0.07382,0.12885c0.01207,0.02182 0.0123,0.04341 0.00069,0.06477c-0.13372,0.24446 -0.78074,1.67361 -1.17355,1.45701c-0.31062,-0.17086 -0.60454,-0.37331 -0.88174,-0.60732c-0.10215,-0.67047 0.11469,-1.11481 0.6505,-1.33304c0.4938,-0.20059 0.966,-0.08776 1.33025,0.28973z" fill="#fdb802" stroke-width="1"/><path d="M239.54985,176.09394c-0.14673,0.34685 -0.31272,0.68695 -0.49797,1.02032c-0.22008,0.39698 -0.58573,0.59408 -1.0454,0.49658c-0.2967,-0.06268 -0.74452,-0.26257 -0.89706,-0.54673c-0.16367,-0.30436 0.09054,-0.72224 0.31759,-0.95416c0.2679,-0.20523 0.54069,-0.335 0.81835,-0.38932c0.43112,-0.08358 0.82531,0.12049 1.30449,0.37331z" fill="#fdb802" stroke-width="1"/><path d="M253.68887,186.17534c-0.01161,0.11933 -0.09078,0.24306 -0.23749,0.37122c-0.12768,0.11097 -0.20825,0.20035 -0.24168,0.26814c-0.21382,0.43321 0.03343,0.94093 0.16018,1.37065c0.00697,0.02229 -0.00069,0.03738 -0.02298,0.04527c-0.50634,0.18038 -1.44935,0.38237 -1.31981,1.13663c0.02995,0.17342 0.08358,0.37957 0.16576,0.53558c0.01066,0.02039 0.02965,0.03534 0.05224,0.04109l1.11574,0.28207c0.02553,0.0065 0.04318,0.02182 0.05293,0.04596c0.21684,0.53629 0.37331,0.97343 0.46942,1.31145c0.12606,0.44156 0.11213,0.87268 -0.06407,1.32259c-0.48196,1.22857 -0.39281,2.57484 0.06825,3.79784c0.00814,0.02124 0.00356,0.04525 -0.01184,0.06199c-0.32873,0.36146 -0.71806,0.75009 -0.9862,1.15683c-0.01272,0.01952 -0.01927,0.04233 -0.0188,0.06547c0.02855,1.12201 -0.42136,2.13886 -0.94999,3.10207c-0.01858,0.0339 -0.03228,0.03204 -0.04109,-0.00557c-0.14278,-0.60732 -0.1985,-1.27523 -0.7898,-1.62138c-0.0195,-0.01161 -0.04016,-0.01532 -0.06199,-0.01114c-0.68115,0.12885 -1.35811,0.20267 -1.49254,0.94162c-0.14557,0.80093 0.55996,1.12131 1.24946,1.47164c0.12722,0.065 0.23192,0.19988 0.3141,0.40464c0.0079,0.01996 0.0079,0.03994 0,0.0599c-0.21939,0.56344 -0.58922,1.28569 -1.0663,1.62974c-0.40883,0.29321 -0.64493,0.46663 -0.93675,0.89357c-0.26744,0.39141 -0.966,1.49949 -1.52735,1.13246c-0.40117,-0.26187 -0.80952,-0.51376 -1.22508,-0.75566c-0.01989,-0.01178 -0.04307,-0.0169 -0.06616,-0.01463c-0.4736,0.04806 -1.01406,0.39698 -1.07187,0.91307c-0.04249,0.38027 0.39351,0.76124 0.41718,1.16938c0.02926,0.49589 -0.86432,0.79327 -1.19444,0.86711c-0.92306,0.20616 -1.52062,0.35033 -1.79272,0.4325c-0.45781,0.1379 -0.80048,0.41115 -1.02798,0.81975c-0.00606,0.01098 -0.01647,0.01889 -0.02866,0.02181c-0.01219,0.00291 -0.02506,0.00056 -0.03543,-0.00648c-0.23633,-0.16205 -0.4743,-0.32804 -0.71388,-0.49797c-0.07289,-0.05153 -0.13047,-0.07382 -0.17272,-0.06687c-1.40083,0.22983 -2.71484,0.30853 -3.94201,0.23611c-1.08603,-0.06361 -2.15023,-0.37191 -3.19261,-0.92492c-0.02053,-0.01114 -0.04461,-0.01366 -0.06687,-0.00697c-0.27163,0.08358 -0.53791,0.18154 -0.79885,0.29392c-0.1249,0.05433 -0.21219,0.07313 -0.26187,0.05641c-0.46942,-0.15415 -0.95068,-0.24051 -1.44378,-0.25909c-0.03018,-0.0014 -0.09007,-0.03204 -0.17969,-0.09193c-1.09416,-0.67627 -1.98842,-1.45631 -2.81861,-2.46968c-0.4151,-0.50656 -0.82857,-1.01406 -1.24042,-1.52248c-0.58318,-0.72014 -1.01824,-1.52342 -1.30518,-2.40978l0.06825,0.07244c0.01532,0.01672 0.03412,0.02205 0.05641,0.01602c0.53489,-0.14766 1.09345,-0.66164 1.44518,-1.07604c0.34336,-0.40464 0.80093,-0.9082 1.24042,-1.15475c0.24237,-0.13581 0.67696,-0.34057 0.95765,-0.26535c0.38654,0.10377 0.7682,0.72502 0.94302,1.07187c0.13024,0.25978 0.2765,0.45828 0.42972,0.68533c0.0126,0.01879 0.03638,0.02633 0.05711,0.01811c0.14997,-0.05665 0.30158,-0.13512 0.45479,-0.2354c0.25119,-0.16437 0.53234,-0.33175 0.84342,-0.50215c0.29461,-0.16089 0.72294,-0.16993 0.9263,-0.46176c0.23331,-0.33361 0.44992,-0.68463 0.93536,-0.55647c0.02033,0.00515 0.03294,0.02546 0.02855,0.04596l-0.15183,0.7299c-0.00557,0.02786 0.00557,0.0448 0.03343,0.05084c0.34545,0.07382 0.69252,0.08636 1.04122,0.03761c0.01583,-0.00234 0.02977,-0.01173 0.03788,-0.02552c0.00811,-0.01381 0.00956,-0.03053 0.0039,-0.04552c-0.0924,-0.24191 -0.16506,-0.49311 -0.21799,-0.75358c-0.0787,-0.38445 0.1574,-0.72782 0.44574,-0.95834c0.01811,-0.01439 0.03854,-0.01927 0.06129,-0.01463c0.1184,0.02368 0.21637,0.05455 0.29392,0.09263c0.43181,0.20987 0.8079,0.37981 1.12828,0.50981c0.14486,0.0585 0.28067,0.07313 0.42067,-0.02716c0.24097,-0.17226 0.48358,-0.35264 0.72782,-0.54115c0.02303,-0.01767 0.05347,-0.02248 0.08069,-0.01274c0.02723,0.00974 0.04749,0.03267 0.05372,0.0608l0.24097,1.05933c0.00625,0.02741 0.02754,0.04888 0.0549,0.0554c0.02735,0.0065 0.05603,-0.00309 0.07395,-0.02475c0.17621,-0.2166 0.43947,-0.71528 0.73408,-0.68602c0.40535,0.0404 0.81139,0.05526 1.21813,0.04458c1.56009,-0.0404 2.73156,-0.82044 2.8597,-2.45714c0.00112,-0.0187 0.01348,-0.03485 0.03124,-0.04082c0.01775,-0.00597 0.03736,-0.00056 0.04955,0.01366l0.59617,0.67975c0.00598,0.00712 0.01548,0.01023 0.0245,0.00801c0.00902,-0.00222 0.016,-0.00938 0.01799,-0.01845c0.1509,-0.62682 0.35845,-1.23576 0.62265,-1.82684c0.26117,-0.58434 0.4137,-1.05445 0.52095,-1.61233c0.08219,-0.42833 0.19779,-0.93815 0.45131,-1.2815c0.10354,-0.14022 0.16948,-0.23309 0.19779,-0.27858c0.04458,-0.07244 0.1263,-0.12073 0.24516,-0.14486c0.03204,0.81696 -0.17342,1.54267 0.39141,2.16323c0.66583,0.7306 1.52806,1.03635 2.39586,0.38445c0.85387,-0.64145 0.80581,-1.53223 0.82601,-2.49545c0.00047,-0.02368 -0.00975,-0.04156 -0.03064,-0.05363l-0.04387,-0.02507c0.02043,-0.0014 0.03807,-0.00697 0.05293,-0.01672c0.01114,-0.00697 0.02113,-0.02067 0.02995,-0.04109c0.05921,-0.13651 0.1755,-0.22008 0.22426,-0.34336c0.15183,-0.38375 -0.04179,-0.58991 -0.28346,-0.84411c-0.09426,-0.09937 -0.1755,-0.15439 -0.24377,-0.16506c-0.32734,-0.05153 -0.64145,-0.09959 -0.97505,-0.17621c-1.03774,-0.23773 -2.05389,-0.40302 -3.04844,-0.49589c-0.14997,-0.01392 -0.17459,-0.07684 -0.07382,-0.18875c0.37471,-0.4144 0.91307,-0.55369 1.38388,-0.81069c0.1184,-0.06477 0.2166,-0.15949 0.22426,-0.28904c0.01858,-0.31295 0.02229,-0.61846 0.01114,-0.91655c-0.00204,-0.05026 -0.04173,-0.09085 -0.09193,-0.09402c-0.77447,-0.05293 -1.34628,-0.4353 -1.72445,-1.12619c-0.26606,-0.48614 -0.41904,-1.01615 -0.45897,-1.59004c-0.04458,-0.6512 0.54186,-0.83994 0.94999,-1.19444c0.03347,-0.02891 0.0535,-0.07036 0.05535,-0.11455c0.00185,-0.04418 -0.01465,-0.08717 -0.0456,-0.11877l-1.13943,-1.16867c-0.02658,-0.02734 -0.06608,-0.03776 -0.10268,-0.02712c-0.03661,0.01064 -0.06435,0.04064 -0.07213,0.07796c-0.05339,0.25723 -0.10261,0.50215 -0.14766,0.73477c-0.06965,0.35706 -0.27209,0.50494 -0.60732,0.44365c-0.19641,-0.03621 -0.24168,-0.1379 -0.26257,-0.32176c-0.08404,-0.75358 -0.12258,-1.4988 -0.11562,-2.23566c0.00093,-0.12164 -0.05804,-0.1704 -0.1769,-0.14626l-1.67222,0.33919c-0.03167,0.00663 -0.06465,-0.00129 -0.08985,-0.02158c-0.27766,-0.22008 -0.49542,-0.48823 -0.65329,-0.80442c-0.00864,-0.01764 -0.02589,-0.02932 -0.04527,-0.03064c-0.67836,-0.04109 -1.29473,0.3169 -1.96891,0.25282c-0.11793,-0.01161 -0.26419,-0.05526 -0.43878,-0.13094c-1.03217,-0.44992 -2.11912,-0.73826 -3.26086,-0.86502c0.09565,-0.23773 0.15485,-0.45688 0.1776,-0.65747c0.06872,-0.60407 0.00697,-1.20605 -0.18526,-1.80595c0.2772,0.23402 0.5711,0.43645 0.88174,0.60732c0.39281,0.2166 1.03983,-1.21256 1.17355,-1.45701c0.01161,-0.02136 0.01137,-0.04295 -0.00069,-0.06477l-0.07382,-0.12885l0.10934,0.117c0.01718,0.01858 0.0383,0.02646 0.06338,0.02368l0.81905,-0.08776c-0.22705,0.23192 -0.48126,0.64981 -0.31759,0.95416c0.15252,0.28416 0.60036,0.48405 0.89706,0.54673c0.45967,0.09751 0.82531,-0.09959 1.0454,-0.49658c0.18526,-0.33337 0.35125,-0.67349 0.49797,-1.02032c0.90263,-0.03947 1.80269,-0.0527 2.70021,-0.0397c0.32687,0.00464 0.65213,-0.00278 0.97576,-0.02229c0.95138,-0.0585 1.95916,-0.17133 2.84508,0.29252c0.01907,0.00996 0.0346,0.02526 0.04458,0.04387c0.1913,0.34685 0.24214,0.67372 0.15252,0.98063c-0.11515,0.3942 -0.21939,0.79096 -0.31272,1.19027c-0.06407,0.2758 -0.04945,0.46454 0.13303,0.70204c0.21266,0.2772 0.4216,0.55578 0.62682,0.83576c0.01392,0.01903 0.03228,0.03181 0.05502,0.0383c0.67487,0.1971 1.25365,0.44853 1.85261,0.86083c1.99677,1.37762 3.86122,3.04149 5.06612,5.19915z" fill="#fdad02" stroke-width="1"/><path d="M234.46214,179.56375c1.14174,0.12675 2.2287,0.4151 3.26086,0.86502c0.17459,0.07568 0.32085,0.11933 0.43878,0.13094c0.67418,0.06407 1.29055,-0.29392 1.96891,-0.25282c0.01938,0.00132 0.03663,0.01301 0.04527,0.03064c0.15787,0.31619 0.37562,0.58434 0.65329,0.80442c0.0252,0.0203 0.05818,0.02822 0.08985,0.02158l1.67222,-0.33919c0.11886,-0.02415 0.17783,0.0246 0.1769,0.14626c-0.00697,0.73686 0.03157,1.48208 0.11562,2.23566c0.02089,0.18387 0.06616,0.28555 0.26257,0.32176c0.33524,0.06129 0.53767,-0.08659 0.60732,-0.44365c0.04504,-0.23262 0.09426,-0.47755 0.14766,-0.73477c0.00777,-0.03732 0.03552,-0.06732 0.07213,-0.07796c0.03661,-0.01064 0.07611,-0.00021 0.10268,0.02712l1.13943,1.16867c0.03094,0.0316 0.04745,0.07459 0.0456,0.11877c-0.00185,0.04418 -0.02188,0.08565 -0.05535,0.11455c-0.40813,0.35451 -0.99456,0.54324 -0.94999,1.19444c0.03994,0.5739 0.19293,1.10391 0.45897,1.59004c0.37818,0.6909 0.94999,1.07326 1.72445,1.12619c0.0502,0.00317 0.08989,0.04377 0.09193,0.09402c0.01114,0.29809 0.00743,0.60361 -0.01114,0.91655c-0.00766,0.12954 -0.10586,0.22426 -0.22426,0.28904c-0.47082,0.257 -1.00918,0.39629 -1.38388,0.81069c-0.10075,0.1119 -0.07615,0.17481 0.07382,0.18875c0.99456,0.09287 2.01071,0.25816 3.04844,0.49589c0.33361,0.07661 0.64772,0.12466 0.97505,0.17621c0.06825,0.01068 0.14951,0.0657 0.24377,0.16506c0.24168,0.25421 0.4353,0.46036 0.28346,0.84411c-0.04875,0.12328 -0.16506,0.20685 -0.22426,0.34336c-0.00882,0.02043 -0.0188,0.03412 -0.02995,0.04109c-0.01486,0.00975 -0.0325,0.01532 -0.05293,0.01672c-0.68115,-0.44713 -1.51621,-0.81556 -2.36451,-0.60036c-0.4476,0.11329 -0.83901,0.32223 -1.17424,0.62682c-0.11886,0.02415 -0.20059,0.07244 -0.24516,0.14486c-0.02833,0.04551 -0.09426,0.13836 -0.19779,0.27858c-0.25351,0.34336 -0.36913,0.85317 -0.45131,1.2815c-0.10725,0.55787 -0.25978,1.02798 -0.52095,1.61233c-0.26419,0.59107 -0.47175,1.20002 -0.62265,1.82684c-0.00199,0.00908 -0.00897,0.01623 -0.01799,0.01845c-0.00902,0.00222 -0.01852,-0.00088 -0.0245,-0.00801l-0.59617,-0.67975c-0.01219,-0.01422 -0.0318,-0.01963 -0.04955,-0.01366c-0.01775,0.00597 -0.03012,0.02212 -0.03124,0.04082c-0.12815,1.63671 -1.29961,2.41675 -2.8597,2.45714c-0.40674,0.01068 -0.81278,-0.00418 -1.21813,-0.04458c-0.29461,-0.02926 -0.55787,0.46942 -0.73408,0.68602c-0.01792,0.02166 -0.04661,0.03126 -0.07395,0.02475c-0.02735,-0.0065 -0.04863,-0.02798 -0.0549,-0.0554l-0.24097,-1.05933c-0.00623,-0.02814 -0.02649,-0.05107 -0.05372,-0.0608c-0.02723,-0.00974 -0.05767,-0.00493 -0.08069,0.01274c-0.24423,0.18851 -0.48683,0.3689 -0.72782,0.54115c-0.14,0.10029 -0.2758,0.08567 -0.42067,0.02716c-0.32038,-0.13001 -0.69647,-0.29994 -1.12828,-0.50981c-0.07754,-0.03807 -0.1755,-0.06895 -0.29392,-0.09263c-0.02275,-0.00464 -0.04318,0.00023 -0.06129,0.01463c-0.28834,0.23053 -0.52444,0.5739 -0.44574,0.95834c0.05293,0.26048 0.12559,0.51167 0.21799,0.75358c0.00564,0.01499 0.00421,0.03171 -0.0039,0.04552c-0.00811,0.01381 -0.02205,0.02318 -0.03788,0.02552c-0.34869,0.04875 -0.69577,0.03621 -1.04122,-0.03761c-0.02786,-0.00604 -0.03901,-0.02298 -0.03343,-0.05084l0.15183,-0.7299c0.00439,-0.02051 -0.00822,-0.04082 -0.02855,-0.04596c-0.48543,-0.12815 -0.70204,0.22287 -0.93536,0.55647c-0.20337,0.29182 -0.63169,0.30087 -0.9263,0.46176c-0.31109,0.1704 -0.59223,0.33779 -0.84342,0.50215c-0.15323,0.10029 -0.30482,0.17876 -0.45479,0.2354c-0.02073,0.00822 -0.04452,0.00068 -0.05711,-0.01811c-0.15323,-0.22705 -0.29948,-0.42555 -0.42972,-0.68533c-0.17481,-0.34685 -0.55647,-0.9681 -0.94302,-1.07187c-0.28067,-0.07522 -0.71528,0.12954 -0.95765,0.26535c-0.43947,0.24655 -0.89706,0.75009 -1.24042,1.15475c-0.35171,0.4144 -0.91029,0.92839 -1.44518,1.07604c-0.02229,0.00604 -0.04109,0.00069 -0.05641,-0.01602l-0.06825,-0.07244c-0.75776,-1.45237 -1.23647,-2.98646 -1.43612,-4.60227c-0.19919,-1.61094 -0.19501,-3.25111 0.06547,-4.84394c0.15044,-0.92026 0.37702,-1.85817 0.67975,-2.81373c0.49728,-1.57031 1.2541,-3.02662 2.27049,-4.36894c0.82555,-1.09021 1.73908,-2.05505 2.7406,-2.89452c1.41941,-1.18911 2.99784,-2.08314 4.7353,-2.6821zM231.27859,191.9414c-0.59548,0.82322 -0.58573,1.97728 0.3357,2.5623c0.21173,0.13512 0.43042,0.29392 0.64703,0.3559c0.75915,0.21939 1.57472,-0.28277 1.95778,-0.91516c0.37471,-0.61777 0.25769,-1.31354 -0.1783,-1.8742c-0.60105,-0.77517 -2.09707,-1.04749 -2.7622,-0.12885zM241.48394,197.58977c0.20407,-0.12258 0.28555,-0.64911 0.30087,-0.85457c0.08219,-1.07535 -0.23819,-2.18621 -0.55161,-3.20793c-0.00688,-0.02106 -0.02483,-0.03659 -0.04667,-0.0404c-0.78144,-0.12606 -2.42301,-0.36217 -3.03452,0.3552c-0.08312,0.09751 -0.14278,0.23913 -0.17899,0.42484c-0.23331,1.19096 -0.28207,2.25934 0.00626,3.412c0.01068,0.04272 0.03738,0.07011 0.0801,0.08219c0.95138,0.26419 1.919,0.28277 2.90289,0.05572c0.15323,-0.03528 0.32711,-0.11097 0.52166,-0.22705z" fill="#fdb802" stroke-width="1"/><path d="M253.68887,186.17534c0.10122,0.13558 0.21568,0.27556 0.34336,0.41998c0.36843,0.41789 0.68115,0.95068 0.87406,1.43473c0.25258,0.63471 0.5198,1.3941 0.80164,2.27815c0.16065,0.50285 0.28091,0.95114 0.36077,1.34488c0.4137,2.03369 0.35102,3.97057 0.10725,6.03838c-0.05108,0.43645 -0.13024,0.8418 -0.23749,1.21604c-0.61011,2.13027 -1.59608,4.07782 -2.9579,5.84268c-0.85898,1.11296 -1.8215,2.12469 -2.88757,3.03521c-0.36077,0.30784 -0.73315,0.58387 -1.11714,0.8281c-3.50533,2.23428 -7.74404,3.07004 -11.85808,2.3269c-0.40442,-0.07289 -0.85341,-0.18828 -1.34697,-0.34614c-1.15382,-0.36913 -2.13328,-0.7234 -2.93841,-1.06281c-0.70622,-0.29763 -1.39341,-0.75102 -2.06155,-1.3602c0.08961,0.0599 0.14951,0.09054 0.17969,0.09193c0.49311,0.01858 0.97436,0.10494 1.44378,0.25909c0.04968,0.01672 0.13698,-0.00209 0.26187,-0.05641c0.26095,-0.11236 0.52723,-0.21033 0.79885,-0.29392c0.02225,-0.00669 0.04632,-0.00419 0.06687,0.00697c1.04239,0.55299 2.10658,0.8613 3.19261,0.92492c1.22717,0.07244 2.54119,-0.00626 3.94201,-0.23611c0.04225,-0.00697 0.09983,0.01532 0.17272,0.06687c0.23959,0.16993 0.47755,0.33593 0.71388,0.49797c0.01037,0.00705 0.02323,0.0094 0.03543,0.00648c0.01219,-0.00291 0.0226,-0.01083 0.02866,-0.02181c0.22752,-0.40859 0.57017,-0.68184 1.02798,-0.81975c0.27209,-0.08219 0.86966,-0.22636 1.79272,-0.4325c0.33013,-0.07382 1.2237,-0.37122 1.19444,-0.86711c-0.02368,-0.40813 -0.45967,-0.7891 -0.41718,-1.16938c0.05781,-0.51609 0.59827,-0.86502 1.07187,-0.91307c0.02309,-0.00227 0.04627,0.00285 0.06616,0.01463c0.41556,0.24191 0.82393,0.4938 1.22508,0.75566c0.56135,0.36703 1.25991,-0.74105 1.52735,-1.13246c0.29182,-0.42693 0.52792,-0.60036 0.93675,-0.89357c0.47708,-0.34405 0.84691,-1.0663 1.0663,-1.62974c0.0079,-0.01996 0.0079,-0.03994 0,-0.0599c-0.08219,-0.20476 -0.18689,-0.33965 -0.3141,-0.40464c-0.6895,-0.35033 -1.39503,-0.6707 -1.24946,-1.47164c0.13442,-0.73895 0.81139,-0.81278 1.49254,-0.94162c0.02182,-0.00418 0.04249,-0.00047 0.06199,0.01114c0.5913,0.34614 0.64703,1.01406 0.7898,1.62138c0.00882,0.03761 0.02252,0.03947 0.04109,0.00557c0.52861,-0.96322 0.97854,-1.98006 0.94999,-3.10207c-0.00047,-0.02314 0.00609,-0.04595 0.0188,-0.06547c0.26814,-0.40674 0.65747,-0.79537 0.9862,-1.15683c0.01539,-0.01674 0.01999,-0.04075 0.01184,-0.06199c-0.46107,-1.223 -0.55021,-2.56927 -0.06825,-3.79784c0.17621,-0.44992 0.19013,-0.88103 0.06407,-1.32259c-0.09611,-0.33802 -0.25258,-0.77517 -0.46942,-1.31145c-0.00975,-0.02415 -0.0274,-0.03947 -0.05293,-0.04596l-1.11574,-0.28207c-0.02259,-0.00575 -0.04158,-0.02069 -0.05224,-0.04109c-0.08219,-0.15601 -0.13581,-0.36217 -0.16576,-0.53558c-0.12954,-0.75428 0.81347,-0.95625 1.31981,-1.13663c0.02229,-0.0079 0.02995,-0.02298 0.02298,-0.04527c-0.12675,-0.42972 -0.374,-0.93745 -0.16018,-1.37065c0.03343,-0.06778 0.11398,-0.15717 0.24168,-0.26814c0.14673,-0.12815 0.22589,-0.25189 0.23749,-0.37122z" fill="#fc9907" stroke-width="1"/><path d="M249.22938,191.99294l0.04387,0.02507c0.02089,0.01207 0.03111,0.02995 0.03064,0.05363c-0.0202,0.96322 0.02786,1.854 -0.82601,2.49545c-0.8678,0.65189 -1.73003,0.34614 -2.39586,-0.38445c-0.56484,-0.62055 -0.35937,-1.34628 -0.39141,-2.16323c0.33524,-0.30459 0.72665,-0.51353 1.17424,-0.62682c0.8483,-0.21521 1.68336,0.15323 2.36451,0.60036zM246.57723,192.74652c-0.07313,0.20198 -0.19013,0.43112 -0.07382,0.63866c0.30296,0.54115 0.84621,0.81627 1.44935,0.54673c0.13929,-0.06221 0.24423,-0.16182 0.31481,-0.29878c0.2556,-0.49519 0.08705,-1.00849 -0.22287,-1.44099c-0.01259,-0.01756 -0.03082,-0.03014 -0.05153,-0.03552c-0.58156,-0.14626 -1.19166,-0.03273 -1.41592,0.58991z" fill="#b36e06" stroke-width="1"/><path d="M231.27859,191.9414c0.66513,-0.91864 2.16115,-0.64632 2.7622,0.12885c0.43599,0.56066 0.55299,1.25643 0.1783,1.8742c-0.38306,0.6324 -1.19862,1.13455 -1.95778,0.91516c-0.2166,-0.06199 -0.4353,-0.22079 -0.64703,-0.3559c-0.92143,-0.58504 -0.93118,-1.73908 -0.3357,-2.5623zM232.94316,192.19631c-1.00779,-0.44156 -1.97519,1.07535 -0.82671,1.68058c0.32502,0.17133 0.65352,0.17899 0.98551,0.02298c0.77935,-0.36634 0.50912,-1.41104 -0.1588,-1.70356z" fill="#b36e06" stroke-width="1"/><path d="M246.50339,193.38518c-0.11631,-0.20755 0.00069,-0.43669 0.07382,-0.63866c0.22426,-0.62265 0.83437,-0.73617 1.41592,-0.58991c0.02071,0.00538 0.03895,0.01796 0.05153,0.03552c0.30993,0.4325 0.47848,0.94581 0.22287,1.44099c-0.07058,0.13698 -0.1755,0.23657 -0.31481,0.29878c-0.60314,0.26954 -1.14638,-0.00557 -1.44935,-0.54673z" fill="#fff6dc" stroke-width="1"/><path d="M232.11644,193.87689c-1.14848,-0.60523 -0.18108,-2.12214 0.82671,-1.68058c0.66792,0.29252 0.93815,1.33722 0.1588,1.70356c-0.33198,0.15601 -0.66048,0.14835 -0.98551,-0.02298z" fill="#fff6dc" stroke-width="1"/><path d="M241.78482,196.7352c-0.01532,0.20545 -0.09681,0.73199 -0.30087,0.85457c-0.19455,0.11607 -0.36843,0.19176 -0.52166,0.22705c-0.98388,0.22705 -1.9515,0.20847 -2.90289,-0.05572c-0.04272,-0.01207 -0.06942,-0.03947 -0.0801,-0.08219c-0.28834,-1.15266 -0.23959,-2.22104 -0.00626,-3.412c0.03621,-0.18573 0.09588,-0.32734 0.17899,-0.42484c0.6115,-0.71736 2.25308,-0.48126 3.03452,-0.3552c0.02182,0.00379 0.03978,0.01934 0.04667,0.0404c0.31341,1.02172 0.63378,2.13259 0.55161,3.20793zM238.66115,196.66485c0.34685,0.53907 1.42637,0.40952 1.89788,0.10795c0.25421,-0.16298 0.24863,-0.75009 0.22148,-1.01337c-0.0404,-0.39049 -0.08265,-0.78701 -0.12675,-1.18956c-0.00216,-0.02216 -0.01796,-0.04072 -0.0397,-0.04667c-0.63935,-0.17086 -1.26966,-0.14115 -1.89091,0.08914c-0.02043,0.0079 -0.03088,0.02275 -0.03134,0.04458l-0.03901,1.97728c-0.00047,0.01083 0.00246,0.02155 0.00835,0.03064z" fill="#b36e06" stroke-width="1"/><path d="M240.55904,196.7728c-0.47151,0.30158 -1.55104,0.43112 -1.89788,-0.10795c-0.00589,-0.0091 -0.00882,-0.01981 -0.00835,-0.03064l0.03901,-1.97728c0.00047,-0.02182 0.01091,-0.03668 0.03134,-0.04458c0.62125,-0.2303 1.25155,-0.26002 1.89091,-0.08914c0.02174,0.00593 0.03754,0.02451 0.0397,0.04667c0.04411,0.40255 0.08636,0.79908 0.12675,1.18956c0.02716,0.26326 0.03273,0.85039 -0.22148,1.01337z" fill="#fff6dc" stroke-width="1"/><path d="M252.90396,206.54635c0.00511,0.02182 0.00255,0.03714 -0.00766,0.04596c-0.00278,0.00233 -0.00488,0.00418 -0.00626,0.00557c-0.27998,0.34963 -0.60871,0.62822 -0.91029,0.94441c-0.14626,0.15252 -0.25909,0.28695 -0.44156,0.41718c-0.10865,0.07801 -0.21033,0.16437 -0.30505,0.25909c-0.11886,0.1184 -0.21799,0.20662 -0.29739,0.26466c-0.27255,0.19872 -0.54487,0.39698 -0.81696,0.59479c-0.90958,0.66118 -1.8208,1.20628 -2.73364,1.63531c-0.2758,0.12954 -0.62752,0.26977 -1.05515,0.42067c-0.00511,0.00186 -0.13418,0.05246 -0.38723,0.15183c-0.16391,0.06454 -0.33244,0.11143 -0.50563,0.14069c2.90613,-1.00709 5.39508,-2.63381 7.46684,-4.88016z" fill="#fff6dc" stroke-width="1"/></g></g></svg>